<?xml version="1.0" encoding="utf-8"?>
<!-- Generator: Adobe Illustrator 25.2.0, SVG Export Plug-In . SVG Version: 6.00 Build 0)  -->
<svg version="1.1" id="Layer_1" xmlns="http://www.w3.org/2000/svg" xmlns:xlink="http://www.w3.org/1999/xlink" x="0px" y="0px"
	 viewBox="0 0 700 700" style="enable-background:new 0 0 700 700;" xml:space="preserve">
<style type="text/css">
	.st0{fill:#F8BC38;}
	.st1{fill:#FFFFFF;}
	.st2{fill:#C1C1C1;}
	.st3{fill:#ECECEE;}
	.st4{fill:#E6655F;}
	.st5{fill:#45A4E5;}
	.st6{fill:#44A4E5;}
	.st7{fill:#E5655E;}
	.st8{fill:#C1E6FF;}
	.st9{fill:#44A5E6;}
	.st10{fill:#E5675D;}
	.st11{fill:#45A5E7;}
	.st12{fill:#E6655E;}
	.st13{fill:#E4665E;}
	.st14{fill:#45A4E6;}
	.st15{fill:#E6665D;}
	.st16{fill:#E46761;}
	.st17{fill:#E66660;}
	.st18{fill:#E6665E;}
	.st19{fill:#E5665F;}
	.st20{fill:#E7665E;}
	.st21{fill:#E76560;}
	.st22{fill:#E6655D;}
	.st23{fill:#E76461;}
	.st24{fill:#E4665F;}
	.st25{fill:#48484A;}
	.st26{fill:#E4675F;}
	.st27{fill:#FFC794;}
	.st28{fill:#333333;}
	.st29{fill:#343434;}
	.st30{fill:#47A3E3;}
	.st31{fill:#46A3E6;}
	.st32{fill:#F4AD71;}
	.st33{fill:#E3665E;}
	.st34{fill:#E6645E;}
	.st35{fill:#C44222;}
	.st36{fill:#F7BB36;}
	.st37{fill:#F5BC38;}
	.st38{fill:#EBEBED;}
	.st39{fill:#6E91E5;}
	.st40{fill:#E8E8E8;}
	.st41{fill:#C1C1C3;}
	.st42{fill:#AFB7B9;}
	.st43{fill:#3F7A06;}
	.st44{fill:#376405;}
	.st45{fill:#70BE2D;}
	.st46{fill:#549A16;}
	.st47{fill:#45A5E5;}
	.st48{fill:#46A3E7;}
	.st49{fill:#B35E27;}
	.st50{fill:#8B481B;}
	.st51{fill:#C1E6FE;}
	.st52{fill:#828385;}
	.st53{fill:#9DA5A7;}
	.st54{fill:#692F0A;}
	.st55{fill:#E0E0E0;}
	.st56{fill:#F5F5F5;}
	.st57{fill:#F56045;}
	.st58{fill:#B84834;}
	.st59{fill:#0D5C8F;}
	.st60{fill:#0F6CA8;}
</style>
<g>
	<path class="st1" d="M526.12,201.58c0,0-18.39,104.41-18,105.56s-7.27,34.92-7.27,34.92l18.49,7.72l23.85-3.99l25.79-11.47
		c0,0,9.27-33.74,9.77-35.47c0.49-1.73-36.84-89.99-36.84-89.99L526.12,201.58z"/>
	<g>
		<path class="st55" d="M36.7,303.72c0,0-25.36,22.41-30.51,62.07l416.38,207.5c0,0,25.92-32.99,31.64-62.95L36.7,303.72z"/>
		<path class="st56" d="M35.96,304.42l418.22,206.95l-31.08,60.98L5.67,364.23C5.67,364.23,27.99,331.87,35.96,304.42z"/>
		<polygon class="st57" points="229.32,461.06 221.73,471.9 189.65,456.08 197.24,440.26 		"/>
		<polygon class="st57" points="193.91,458.18 160.26,498.73 175.28,511.46 190.58,492.72 185.57,516.6 204.31,520.75 
			216.22,469.19 		"/>
		<polygon class="st58" points="190.58,492.72 197.41,459.91 195.69,459.06 188.24,495.58 		"/>
		<polygon class="st58" points="193.91,458.18 216.22,469.19 215.9,470.57 193.21,459.03 		"/>
	</g>
	<g>
		<g>
			<path class="st59" d="M29.26,279.06c111.56-50.87,223.21-101.53,334.8-152.35c54.81,25.37,109.7,50.57,164.49,76
				c1.89,34.44,4.06,68.88,6.02,103.31c-3.39,0.59-6.69,1.57-9.88,2.86c-2.21-13.25-3.88-26.59-5.91-39.86
				c-34.74-3.83-69.6-6.87-104.53-8.28c-24.67-1.65-49.42-1.61-74.14-1.39c-31.17,1.05-62.52,2.36-93.16,8.57
				c-10.94,2.45-21.81,5.43-32.22,9.62c-2.05,0.5-2.89,2.44-3.08,4.37c-3.22,19.89-6.39,39.79-9.76,59.66
				C144.29,320.84,86.77,299.97,29.26,279.06z"/>
			<path class="st59" d="M567.36,327.77c1.14-4.67-0.54-9.72-3.88-13.1c-5.84-6.44-14.81-8.77-23.21-9.04
				c-1.62-28.2-3.31-56.39-4.95-84.59c-0.48-5.07-0.28-10.22-1.13-15.23l0.25-0.35c53.4,24.3,106.58,49.13,159.91,73.62
				c-45.47,19.93-90.76,40.26-136.3,60.01C562.31,336.58,566.31,332.81,567.36,327.77z"/>
			<path class="st59" d="M529.32,342.38c7.31,1.91,15.14,1.91,22.38-0.32c-7.04,3.05-14.02,6.2-21.05,9.25
				C530.25,348.33,529.79,345.35,529.32,342.38z"/>
			<path class="st59" d="M300.1,417.39c34.75-3.71,69.76-5.34,104.69-3.7c42.16,1.9,84.26,8.59,124.39,21.85
				c4.64,1.59,9.23,3.32,14.01,4.45l0.7,0.18c-4.19,5.81-10.51,9.53-16.85,12.55c-16.41,7.45-34.19,11.18-51.86,14.18
				c-27.05,4.4-54.45,6.25-81.81,7.24c-48.91,1.29-98.21,1.14-146.61-6.84c-11.79-2.12-23.5-4.78-34.79-8.79
				c-8.01-3.16-16.26-6.57-22.58-12.6c-1.7-1.54-2.86-3.55-3.86-5.58c9.87-2.89,19.88-5.26,29.81-7.95
				c12.26-2.91,24.67-5.13,36.98-7.85C268.16,421.74,284.12,419.49,300.1,417.39z"/>
		</g>
		<g>
			<path class="st60" d="M246.93,267.91c30.64-6.21,61.99-7.52,93.16-8.57c24.72-0.22,49.47-0.26,74.14,1.39
				c34.93,1.41,69.79,4.46,104.53,8.28c2.04,13.27,3.7,26.61,5.91,39.86c-4.48,2.29-8.85,5.49-10.95,10.24
				c-2.11,4.5-1.39,10.05,1.55,14.01c3.33,4.73,8.67,7.45,14.03,9.25c0.48,2.97,0.93,5.95,1.33,8.93
				c4.1,29.57,8.53,59.1,12.54,88.67c-4.78-1.12-9.37-2.86-14.01-4.45c-40.13-13.26-82.23-19.95-124.39-21.85
				c-34.93-1.64-69.94-0.01-104.69,3.7c-15.98,2.1-31.93,4.35-47.8,7.14c-12.31,2.71-24.72,4.93-36.98,7.85
				c-9.93,2.69-19.94,5.06-29.81,7.95c5.67-32.89,10.94-65.85,16.37-98.77c3.37-19.87,6.54-39.77,9.76-59.66
				c0.18-1.93,1.03-3.87,3.08-4.37C225.12,273.33,235.99,270.35,246.93,267.91z"/>
		</g>
	</g>
</g>
</svg>
