<?xml version="1.0" encoding="utf-8"?>
<!-- Generator: Adobe Illustrator 25.2.0, SVG Export Plug-In . SVG Version: 6.00 Build 0)  -->
<svg version="1.1" id="Layer_1" xmlns="http://www.w3.org/2000/svg" xmlns:xlink="http://www.w3.org/1999/xlink" x="0px" y="0px"
	 viewBox="0 0 700 700" style="enable-background:new 0 0 700 700;" xml:space="preserve">
<style type="text/css">
	.st0{fill:#F8BC38;}
	.st1{fill:#FFFFFF;}
	.st2{fill:#C1C1C1;}
	.st3{fill:#ECECEE;}
	.st4{fill:#E6655F;}
	.st5{fill:#45A4E5;}
	.st6{fill:#44A4E5;}
	.st7{fill:#E5655E;}
	.st8{fill:#C1E6FF;}
	.st9{fill:#44A5E6;}
	.st10{fill:#E5675D;}
	.st11{fill:#45A5E7;}
	.st12{fill:#E6655E;}
	.st13{fill:#E4665E;}
	.st14{fill:#45A4E6;}
	.st15{fill:#E6665D;}
	.st16{fill:#E46761;}
	.st17{fill:#E66660;}
	.st18{fill:#E6665E;}
	.st19{fill:#E5665F;}
	.st20{fill:#E7665E;}
	.st21{fill:#E76560;}
	.st22{fill:#E6655D;}
	.st23{fill:#E76461;}
	.st24{fill:#E4665F;}
	.st25{fill:#48484A;}
	.st26{fill:#E4675F;}
	.st27{fill:#FFC794;}
	.st28{fill:#333333;}
	.st29{fill:#343434;}
	.st30{fill:#47A3E3;}
	.st31{fill:#46A3E6;}
	.st32{fill:#F4AD71;}
	.st33{fill:#E3665E;}
	.st34{fill:#E6645E;}
	.st35{fill:#C44222;}
	.st36{fill:#F7BB36;}
	.st37{fill:#F5BC38;}
	.st38{fill:#EBEBED;}
	.st39{fill:#6E91E5;}
	.st40{fill:#E8E8E8;}
	.st41{fill:#C1C1C3;}
	.st42{fill:#AFB7B9;}
	.st43{fill:#3F7A06;}
	.st44{fill:#376405;}
	.st45{fill:#70BE2D;}
	.st46{fill:#549A16;}
	.st47{fill:#45A5E5;}
	.st48{fill:#46A3E7;}
	.st49{fill:#B35E27;}
	.st50{fill:#8B481B;}
	.st51{fill:#C1E6FE;}
	.st52{fill:#828385;}
	.st53{fill:#9DA5A7;}
	.st54{fill:#692F0A;}
	.st55{fill:#E0E0E0;}
	.st56{fill:#F5F5F5;}
	.st57{fill:#F56045;}
	.st58{fill:#B84834;}
	.st59{fill:#0D5C8F;}
	.st60{fill:#0F6CA8;}
</style>
<g>
	<g>
		<g>
			<path class="st0" d="M168.11,52.65c3.71-0.05,7.41-0.02,11.12,0c0,1.45,0.01,2.91,0.01,4.37c1.96,0.99,3.86,2.07,5.71,3.24
				c1.34-0.77,2.7-1.53,4.06-2.28c1.84,3.25,3.84,6.41,5.51,9.75c-1.3,0.74-2.59,1.48-3.88,2.23c0.01,0.44,0.03,1.31,0.04,1.74
				c0.02,1.48,0.03,2.96,0.04,4.44c1.35,0.89,2.71,1.78,4.08,2.65c-1.9,3.15-3.51,6.49-5.7,9.45c-1.27-0.69-2.54-1.38-3.81-2.06
				c-1.89,1.15-3.73,2.39-5.53,3.69c-0.04,1.46,0.02,2.96-0.41,4.38c-3.57-0.15-7.14-0.09-10.7-0.13c-0.02-1.45-0.05-2.89-0.11-4.33
				c-2.04-0.76-3.95-1.81-5.7-3.11c-1.31,0.69-2.62,1.4-3.91,2.12c-1.87-3.22-3.8-6.41-5.54-9.71c1.17-0.67,2.33-1.34,3.48-2.02
				c-0.23-2.3-0.26-4.61-0.16-6.91c-1.21-0.68-2.42-1.36-3.62-2.04c1.88-3.25,3.63-6.59,5.72-9.72c1.12,0.71,2.25,1.41,3.39,2.12
				c1.86-1.33,3.85-2.47,5.92-3.45C168.12,55.6,168.11,54.12,168.11,52.65z M171.2,67.32c-4.8,1.66-5.51,8.98-1.16,11.57
				c3.86,2.85,9.99-0.06,10.21-4.86C180.94,69.29,175.55,65.24,171.2,67.32z"/>
		</g>
		<path class="st0" d="M462.28,185.36c15.49,0.02,30.97,0.01,46.46,0.01c0,21.38,0.05,42.77-0.03,64.16
			c-15.47-0.01-30.95-0.01-46.43,0C462.21,228.14,462.21,206.75,462.28,185.36z"/>
		<path class="st0" d="M436.77,191.15c3.82-0.02,7.63-0.04,11.45-0.01c0.05,3.82,0.03,7.65,0.03,11.48
			c-3.82,0.05-7.65,0.03-11.47-0.01C436.73,198.79,436.71,194.97,436.77,191.15z"/>
		<path class="st0" d="M92.5,260.51c11.16,0.01,22.33-0.01,33.49,0.01c0,11.12,0.04,22.25-0.02,33.37
			c-11.14,0.02-22.28-0.02-33.43,0.02C92.45,282.78,92.53,271.64,92.5,260.51z"/>
		<path class="st0" d="M136.13,304.78c11.06-0.09,22.12,0.05,33.19-0.07c0.49,11.03,0,22.1,0.24,33.15
			c-11.1,0.63-22.28,0.12-33.41,0.27C136.1,327.01,136.13,315.9,136.13,304.78z"/>
		<path class="st0" d="M179.29,407.85c3.85-3.67,7.66-7.39,11.62-10.94c1.49,1.9,2.92,3.85,4.3,5.85
			c-3.96,3.93-8.07,7.71-12.07,11.6c-8.09,7.46-15.81,15.33-24.02,22.67c-3.94-5.97-7.66-12.09-11.44-18.17
			c1.57-1.77,3.41-3.25,5.35-4.6c2.63,3.72,4.85,7.7,7.34,11.51C166.81,419.94,172.98,413.82,179.29,407.85z"/>
		<path class="st0" d="M102.05,452.08c1.93-4.82,8.82-6.2,12.54-2.63c3.71,3.16,3.22,9.19-0.35,12.27c1.92,1.49,3.46,3.38,4.7,5.46
			c-5.79,3.74-13.64,3.77-19.4-0.06c1.33-2.01,2.89-3.85,4.74-5.41C101.77,459.25,100.42,455.4,102.05,452.08z"/>
	</g>
	<path class="st1" d="M579.22,185.41c3.31-1.37,6.96,2.41,5.5,5.66c-0.93,2.95-5.26,3.84-7.27,1.49
		C575.27,190.46,576.2,186.15,579.22,185.41z"/>
	<g>
		<path class="st1" d="M287.11,340.21c8.26-0.78,16.65-0.57,24.82,0.89c2.75,0.46,3.4,3.63,2.8,5.95
			c-0.71,4.19-0.33,8.68-2.03,12.64c-1.77,3.59-5.61,6.19-9.66,6.07c-5.7,0-11.39,0.03-17.08-0.01c-3.58-0.05-6.76-3.19-6.96-6.74
			c-0.44-5.02-1.24-10.03-1.28-15.06C278.93,339.96,283.88,340.87,287.11,340.21z M300.24,351.14c-2.37,1.87-2.28,6.79,0.79,7.89
			C305.93,359.4,305.1,349.08,300.24,351.14z"/>
	</g>
	<g>
		<path class="st1" d="M329.51,340.73c9.44-1.34,19.08-1.3,28.5,0.22c2.05,0.09,3.96,1.91,3.73,4.05c-0.31,4.67-0.88,9.32-1.3,13.99
			c-0.26,3.7-3.68,6.95-7.43,6.77c-5.71,0.01-11.42,0.02-17.13-0.01c-5.27-0.1-9.85-4.68-10.24-9.88c-0.33-3.95-1.09-7.87-1.1-11.84
			C324.96,341.68,327.42,340.83,329.51,340.73z M344.21,351.22c-2.18,1.96-2.13,6.57,0.78,7.82
			C350.09,359.57,349.21,348.82,344.21,351.22z"/>
	</g>
	<path class="st1" d="M452.32,488.48c7.25-2.48,15.06,5.14,12.64,12.45c-1.69,7.37-12.18,9.93-17.1,4.21
		C442.66,500.09,445.28,490.25,452.32,488.48z"/>
	<g>
		<g>
			<path class="st2" d="M190.68,71.7c45.77-0.15,91.55-0.02,137.32-0.06c4.79-0.5,9.72,3.38,9.48,8.37
				c0.02,12.69-0.05,25.38,0.04,38.07c0.06,24.66,0,49.32,0.03,73.99c0.54,4.83-3.63,9.52-8.57,9.18
				c-46.66,0.12-93.34,0-140.01,0.07c-3.01,0.08-6.34-0.53-8.29-3.06c-2.53-2.82-1.87-6.88-2-10.36c0.17-28.3,0.03-56.61,0.08-84.91
				c0.13-2.91-0.48-5.95,0.59-8.74c0.43-1.42,0.37-2.92,0.41-4.38c1.8-1.3,3.64-2.54,5.53-3.69c1.27,0.68,2.54,1.37,3.81,2.06
				c2.19-2.96,3.8-6.3,5.7-9.45c-1.37-0.87-2.73-1.76-4.08-2.65C190.71,74.66,190.7,73.18,190.68,71.7z M297.28,78.39
				c-2.01,0.21-3.3,2.71-2.06,4.41c0.89,1.79,3.77,1.77,4.76,0.09C301.58,81.18,299.56,77.81,297.28,78.39z M308.25,78.43
				c-2.07,0.11-3.25,2.71-2.17,4.41c0.93,1.7,4.03,1.84,4.89,0C312.44,80.91,310.52,78.12,308.25,78.43z M319.31,78.42
				c-3.93,0.03-3.16,6.57,0.63,5.62C323.57,83.97,322.82,77.88,319.31,78.42z M188.21,90.23c-1.75,0.9-1.94,3.06-1.86,4.8
				c0.04,31-0.02,61.99,0.03,92.98c-0.35,2.58,1.96,4.99,4.56,4.62c44.97,0,89.95,0.03,134.92-0.02c2.41,0.12,4.32-2.19,4-4.54
				c0.05-31.37,0.02-62.74,0.01-94.1c0.24-2.24-1.66-4.45-3.96-4.29c-44.31-0.12-88.62,0.02-132.93-0.07
				C191.39,89.71,189.66,89.45,188.21,90.23z"/>
		</g>
		<g>
			<path class="st2" d="M414.05,155c-0.31-4.43,3.47-8.68,7.94-8.68c24.76-0.13,49.52,0.12,74.27-0.11
				c11.51,0.17,23.03-0.07,34.54,0.12l0.6,0.26c1.74,0.98,3.41,2.07,5.08,3.16c-0.27,3.07-0.19,6.16,0.07,9.24
				c-1.61,0.88-3.15,1.87-4.67,2.89c0.75,1.35,1.5,2.71,2.27,4.06c-36.05,0.17-72.12-0.06-108.17,0.11
				c-2.84-0.36-4.74,2.31-4.35,4.95c-0.03,30.69,0.02,61.37-0.02,92.05c0.02,1.91-0.03,4.41,2.01,5.38c2.7,0.77,5.58,0.34,8.37,0.44
				c42.68-0.03,85.37-0.02,128.05-0.01c1.77,0.04,3.97-0.19,4.72-2.11c0.68-3.19,0.32-6.48,0.39-9.71
				c-0.03-24.97-0.02-49.94,0-74.91c0.65-0.04,1.96-0.11,2.61-0.15c-0.02-2.02-0.03-4.03-0.03-6.05c1.68-0.94,3.38-1.85,5.02-2.87
				c0.03,1.79,0.07,3.57,0.11,5.36c-0.82,0.58-1.68,1.1-2.49,1.68c0.36,0.93,0.73,1.86,1.1,2.79c-0.63,1.16-1.25,2.34-1.86,3.51
				c-0.64,0.15-1.91,0.45-2.54,0.6c0.04,2.23,0.1,4.45,0.18,6.68c1.08,0.24,2.15,0.48,3.24,0.72c0.6,0.97,1.2,1.94,1.8,2.92
				c-0.01,1.2,0.04,2.4,0.17,3.6c0.36,2.67,0.3,5.38,0.28,8.07c-0.02,19.35,0,38.7,0,58.04c0.44,4.79-3.93,9.14-8.7,8.81
				c-45.69,0.08-91.38-0.04-137.07,0.05c-3.36-0.07-7.22,0.45-9.93-1.96c-2.36-1.89-3.25-4.96-3.07-7.89
				C414.04,229.03,413.9,192.01,414.05,155z M428.31,153.46c-2.92,1.82,0.06,6.78,3.1,4.96
				C434.82,156.54,431.65,151.09,428.31,153.46z M439.29,153.42c-2.84,1.8-0.04,6.81,3,4.99
				C445.87,156.64,442.67,151.11,439.29,153.42z M450.23,153.4c-3.04,1.91-0.06,6.84,3.07,5C456.75,156.58,453.6,151.1,450.23,153.4
				z"/>
		</g>
		<g>
			<path class="st2" d="M29.89,238.03c-0.26-4.46,3.62-8.61,8.09-8.61c33.96-0.13,67.93,0.05,101.9-0.08
				c13.35,0.13,26.71-0.03,40.06,0.07c4.59-0.23,9.02,3.85,8.7,8.54c-0.04,37.69,0.04,75.39-0.04,113.08
				c0.07,4.49-4.14,8.11-8.52,7.95c-32.07,0.06-64.15-0.05-96.22,0.04C68.57,359,53.29,359.07,38,358.98
				c-4.63,0.07-8.5-4.38-8.12-8.94C29.9,312.71,29.87,275.37,29.89,238.03z M148.3,236.34c-3.47,1.19-0.96,7.07,2.38,5.26
				C154.07,240.21,151.72,234.7,148.3,236.34z M159.32,236.33c-3.22,0.94-1.67,6.44,1.62,5.49
				C165,241.34,163.17,234.48,159.32,236.33z M170.18,236.25c-3.18,1.26-1.63,6.37,1.72,5.54
				C175.95,241.21,174.08,234.58,170.18,236.25z M39.35,248.46c-1.17,0.73-2.07,1.99-1.89,3.43c-0.02,31.39,0.01,62.79-0.01,94.18
				c-0.37,2.52,1.86,5.05,4.45,4.69c45.04,0.01,90.09,0.07,135.12-0.03c2.56,0.29,4.38-2.28,3.95-4.66
				c0.01-31.36,0.03-62.73,0.01-94.09c0.25-2.22-1.75-4.28-3.98-4.07c-44.34-0.11-88.68,0.03-133.02-0.07
				C42.45,247.96,40.74,247.64,39.35,248.46z"/>
		</g>
		<g>
			<path class="st2" d="M451.03,302.98c-0.32-5.33,4.73-9.76,9.96-9.13c53.33,0.02,106.66-0.07,159.99,0.04
				c5.02-0.34,9.65,4.04,9.36,9.12c0.1,38.33-0.04,76.66,0.06,114.99c-0.07,2.79,0.27,5.79-1.08,8.35c-1.76,3.35-5.7,4.89-9.34,4.66
				c-45.12-0.13-90.24,0.19-135.35-0.16c0.43-0.84,0.86-1.69,1.28-2.53c-2.33-1.3-4.65-2.61-6.89-4.06
				c43.34-0.26,86.68-0.03,130.02-0.11c3.97-0.1,7.98,0.35,11.92-0.31c2.5-0.66,2.39-3.74,2.44-5.79
				c-0.09-35.35,0.04-70.71-0.07-106.06c0.29-2.5-1.67-4.93-4.28-4.59c-52.36-0.01-104.73-0.05-157.08,0.01
				c-2.44-0.24-4.17,2.3-3.96,4.54c-0.06,24.46-0.01,48.92-0.01,73.39c-2.33-0.05-4.66,0.05-6.98,0.03
				C451,357.91,450.99,330.44,451.03,302.98z M592.32,297.37c-2.16,0.95-2.59,4.47-0.35,5.64c1.98,1.47,5.28-0.39,4.84-2.91
				C596.84,297.84,594.28,296.53,592.32,297.37z M604.38,297.42c-2.18,0.85-2.46,4.44-0.37,5.58c1.64,1.34,4.61,0.01,4.78-2.05
				C609.51,298.5,606.6,296.22,604.38,297.42z M616.31,297.45c-3.55,1.52-0.89,7.62,2.65,5.79
				C622.9,301.86,620.07,295.37,616.31,297.45z"/>
		</g>
		<g>
			<path class="st2" d="M56.39,419.94c-0.16-3.5,3.27-6.5,6.71-6.18c5.67-0.03,11.33,0.04,17-0.01c19.36,0.04,38.72-0.21,58.07,0.12
				c-1.38,3.67-2,7.59-1.81,11.51c-24.9,0.29-49.81-0.15-74.72,0.22c-0.59,1.39-1.24,2.79-1.11,4.36c-0.02,29,0.02,58.01,0,87.01
				c0.07,3.62-0.45,7.34,0.7,10.86c1.9,0.25,3.8,0.5,5.72,0.48c24.47-0.13,48.95,0.05,73.43-0.1c-0.01,2-0.01,3.99-0.01,6
				c-9.86,0.18-19.72,0.05-29.58,0.07c-15.92-0.09-31.84,0.04-47.76-0.06c-3.38,0.15-6.79-2.72-6.63-6.22
				C56.34,491.99,56.37,455.96,56.39,419.94z M65.31,417.34c-1.63,1.48-0.57,4.74,1.73,4.79c2.49,0.48,4.14-2.93,2.41-4.67
				C68.38,416.17,66.52,416.34,65.31,417.34z M76.12,417.07c-2.79,2.31,0.68,6.82,3.62,4.52C82.36,419.17,79.13,414.97,76.12,417.07
				z M86.34,417.35c-1.02,1.22-0.79,3.01,0.24,4.15c1.48,1.28,4.28,0.63,4.63-1.43C92.22,417.26,88.25,415.33,86.34,417.35z"/>
		</g>
	</g>
	<g>
		<path class="st3" d="M297.28,78.39c2.28-0.58,4.3,2.79,2.7,4.5c-0.99,1.68-3.87,1.7-4.76-0.09
			C293.98,81.1,295.27,78.6,297.28,78.39z"/>
		<path class="st3" d="M308.25,78.43c2.27-0.31,4.19,2.48,2.72,4.41c-0.86,1.84-3.96,1.7-4.89,0
			C305,81.14,306.18,78.54,308.25,78.43z"/>
		<path class="st3" d="M319.31,78.42c3.51-0.54,4.26,5.55,0.63,5.62C316.15,84.99,315.38,78.45,319.31,78.42z"/>
		<g>
			<path class="st3" d="M188.21,90.23c1.45-0.78,3.18-0.52,4.77-0.62c44.31,0.09,88.62-0.05,132.93,0.07
				c2.3-0.16,4.2,2.05,3.96,4.29c0.01,31.36,0.04,62.73-0.01,94.1c0.32,2.35-1.59,4.66-4,4.54c-44.97,0.05-89.95,0.02-134.92,0.02
				c-2.6,0.37-4.91-2.04-4.56-4.62c-0.05-30.99,0.01-61.98-0.03-92.98C186.27,93.29,186.46,91.13,188.21,90.23z M195.81,98.25
				c-0.17,28.58-0.04,57.17-0.06,85.75c11.45,0.02,22.91,0.01,34.36,0c-0.04-28.58,0.15-57.17-0.09-85.75
				C218.62,98.26,207.21,98.26,195.81,98.25z M280.4,100.24c-0.49,1.9-0.22,3.9-0.27,5.84c0.01,23.32,0.02,46.64-0.01,69.96
				c-0.05,1.43-0.12,3.58,1.9,3.61c2.1,0.07,2.16-2.08,2.12-3.61c-0.04-24.67,0.04-49.33-0.04-73.99
				C284.57,99.87,281.79,98.5,280.4,100.24z M290.84,110.35c7.08,0.05,14.17,0.08,21.25-0.02c2.44,0.38,2.34-4.32-0.09-3.79
				c-7.36-0.06-14.73,0-22.09-0.02C288.6,107.65,288.72,110.37,290.84,110.35z M289.89,117.5c9.12-0.13,18.26,0.26,27.37-0.2
				c0-0.87,0-2.62,0.01-3.49c-9.09-0.33-18.2-0.2-27.28-0.07C288.5,114.68,289.01,116.33,289.89,117.5z M235.18,115.21
				c-2.28,0.4-1.61,4.25,0.7,3.76c6.38,0.04,12.77,0.14,19.16-0.06c1.97-0.76,1.17-4.18-1.03-3.74
				C247.73,115.13,241.45,115.04,235.18,115.21z M289.05,122.95c-0.1,1.66,1.72,1.77,2.89,1.7c8.58-0.09,17.17,0.14,25.75-0.11
				c1.71-0.5,1.27-2.65,0.42-3.72c-8.71-0.15-17.42,0-26.13-0.08C290.69,120.53,288.57,121.27,289.05,122.95z M235.39,123.44
				c-1.97,0.07-2.24,3.2-0.35,3.75c9.66,0.18,19.33,0.03,29,0.07c2.49,0.61,3.24-3.81,0.61-3.83
				C254.9,123.34,245.14,123.32,235.39,123.44z M290.09,128.08c-1.92,0.81-1.19,3.94,0.92,3.74c9.05,0.11,18.1,0.06,27.15,0.03
				c1.55,0.3,2.98-1.25,2.26-2.77c-0.62-1.85-3.01-0.96-4.44-1.21C307.35,128.05,298.69,127.6,290.09,128.08z M235.29,132.33
				c-2.47,0.21-1.74,4.32,0.63,3.79c10.35-0.01,20.72,0.11,31.08-0.05c2.19-0.7,1.15-4.33-1.06-3.79
				C255.72,132.29,245.5,132.19,235.29,132.33z M235.33,142.42c-2.39,0.07-1.87,4.42,0.64,3.82c10.04,0.04,20.08,0.04,30.12,0
				c2.41,0.53,2.94-3.76,0.6-3.81C256.24,142.34,245.78,142.35,235.33,142.42z M291.44,176.89c8.57,0.24,17.14,0.12,25.71,0.06
				c-0.05-10.8,0.03-21.61-0.04-32.41c-8.51-0.08-17.02,0.02-25.52-0.05C291.34,155.28,291.63,166.09,291.44,176.89z M235.38,152.46
				c-2.46,0.12-1.93,4.38,0.57,3.9c10.32,0,20.65,0.19,30.97-0.1c2.27-0.57,1.32-4.41-0.97-3.84
				C255.76,152.39,245.56,152.31,235.38,152.46z M235.42,162.56c-2.53,0.04-1.94,4.36,0.58,3.81c10,0.04,20.01,0.02,30.01,0.01
				c2.47,0.57,3.04-3.76,0.56-3.82C256.19,162.46,245.8,162.45,235.42,162.56z"/>
		</g>
		<path class="st3" d="M428.31,153.46c3.34-2.37,6.51,3.08,3.1,4.96C428.37,160.24,425.39,155.28,428.31,153.46z"/>
		<path class="st3" d="M439.29,153.42c3.38-2.31,6.58,3.22,3,4.99C439.25,160.23,436.45,155.22,439.29,153.42z"/>
		<path class="st3" d="M450.23,153.4c3.37-2.3,6.52,3.18,3.07,5C450.17,160.24,447.19,155.31,450.23,153.4z"/>
		<g>
			<path class="st3" d="M421.63,171c-0.39-2.64,1.51-5.31,4.35-4.95c36.05-0.17,72.12,0.06,108.17-0.11
				c1.79,2.99,3.39,6.11,5.4,8.97c1.59-0.98,3.2-1.96,4.8-2.94c2.65,1.66,5.37,3.21,8.28,4.36c0,1.93,0,3.86,0.01,5.79
				c4.17,0.01,8.34,0.06,12.51,0.01c-0.02,24.97-0.03,49.94,0,74.91c-0.07,3.23,0.29,6.52-0.39,9.71c-0.75,1.92-2.95,2.15-4.72,2.11
				c-42.68-0.01-85.37-0.02-128.05,0.01c-2.79-0.1-5.67,0.33-8.37-0.44c-2.04-0.97-1.99-3.47-2.01-5.38
				C421.65,232.37,421.6,201.69,421.63,171z M462.28,185.36c-0.07,21.39-0.07,42.78,0,64.17c15.48-0.01,30.96-0.01,46.43,0
				c0.08-21.39,0.03-42.78,0.03-64.16C493.25,185.37,477.77,185.38,462.28,185.36z M436.77,191.15c-0.06,3.82-0.04,7.64,0.01,11.46
				c3.82,0.04,7.65,0.06,11.47,0.01c0-3.83,0.02-7.66-0.03-11.48C444.4,191.11,440.59,191.13,436.77,191.15z M530.49,191.62
				c-4.9,1.74-7.97,7.26-6.8,12.34c1.01,5.49,6.76,9.44,12.25,8.46c6.12-0.77,10.47-7.43,8.79-13.35
				C543.38,192.99,536.25,189.33,530.49,191.62z M436.77,211.65c-0.04,3.86-0.04,7.73-0.01,11.59c3.82,0.04,7.65,0.03,11.48,0.01
				c0.02-3.87,0.01-7.74,0-11.6C444.41,211.63,440.59,211.61,436.77,211.65z M517.24,220.42c-1.57,1.26-0.28,4.02,1.71,3.46
				c10.37-0.01,20.76,0.03,31.13-0.02c2.45,0.35,2.45-4.07,0.02-3.8c-10.71-0.07-21.42-0.11-32.13,0.02L517.24,220.42z
				 M517.17,231.39c-1.45,1.35-0.21,3.91,1.76,3.48c10.34,0.01,20.68,0.08,31.02-0.03c2.52,0.4,2.7-4.17,0.1-3.79
				c-9.34-0.12-18.68,0.02-28.02-0.05C520.41,231.1,518.68,230.7,517.17,231.39z M436.73,232.32c0.03,3.81,0,7.62,0.02,11.43
				c3.84,0.01,7.67,0.02,11.51-0.02c0-3.82,0.01-7.63,0-11.44C444.41,232.26,440.57,232.21,436.73,232.32z M517.22,242.29
				c-1.5,1.36-0.3,3.93,1.68,3.57c10.35,0.04,20.71,0.12,31.05-0.04c2.56,0.36,2.7-4.09,0.09-3.92c-9.34-0.07-18.68,0.03-28.02-0.03
				C520.42,241.98,518.69,241.57,517.22,242.29z"/>
		</g>
		<path class="st3" d="M148.3,236.34c3.42-1.64,5.77,3.87,2.38,5.26C147.34,243.41,144.83,237.53,148.3,236.34z"/>
		<path class="st3" d="M159.32,236.33c3.85-1.85,5.68,5.01,1.62,5.49C157.65,242.77,156.1,237.27,159.32,236.33z"/>
		<path class="st3" d="M170.18,236.25c3.9-1.67,5.77,4.96,1.72,5.54C168.55,242.62,167,237.51,170.18,236.25z"/>
		<g>
			<path class="st3" d="M39.35,248.46c1.39-0.82,3.1-0.5,4.63-0.62c44.34,0.1,88.68-0.04,133.02,0.07c2.23-0.21,4.23,1.85,3.98,4.07
				c0.02,31.36,0,62.73-0.01,94.09c0.43,2.38-1.39,4.95-3.95,4.66c-45.03,0.1-90.08,0.04-135.12,0.03
				c-2.59,0.36-4.82-2.17-4.45-4.69c0.02-31.39-0.01-62.79,0.01-94.18C37.28,250.45,38.18,249.19,39.35,248.46z M49,260.52
				c0.02,11.12-0.03,22.25,0.03,33.38c11.12-0.02,22.25-0.05,33.38,0.01c0.21-11.13,0.04-22.26,0.09-33.39
				C71.34,260.5,60.17,260.51,49,260.52z M92.5,260.51c0.03,11.13-0.05,22.27,0.04,33.4c11.15-0.04,22.29,0,33.43-0.02
				c0.06-11.12,0.02-22.25,0.02-33.37C114.83,260.5,103.66,260.52,92.5,260.51z M136.12,260.54c0.02,11.12-0.02,22.24,0.02,33.36
				c11.13-0.06,22.27,0.09,33.4-0.08c-0.12-11.1,0.09-22.21-0.1-33.32C158.33,260.52,147.23,260.45,136.12,260.54z M49,304.75
				c-0.02,11.13,0.03,22.26-0.02,33.39c11.17,0,22.34-0.02,33.5,0.01c0.01-11.13,0.04-22.27-0.01-33.4
				C71.31,304.76,60.16,304.75,49,304.75z M92.55,304.75c-0.09,11.13-0.05,22.27-0.02,33.4c11.14-0.01,22.29,0.01,33.44-0.02
				c0.08-11.12,0.04-22.25,0.02-33.37C114.84,304.76,103.69,304.76,92.55,304.75z M136.13,304.78c0,11.12-0.03,22.23,0.02,33.35
				c11.13-0.15,22.31,0.36,33.41-0.27c-0.24-11.05,0.25-22.12-0.24-33.15C158.25,304.83,147.19,304.69,136.13,304.78z"/>
		</g>
		<path class="st3" d="M592.32,297.37c1.96-0.84,4.52,0.47,4.49,2.73c0.44,2.52-2.86,4.38-4.84,2.91
			C589.73,301.84,590.16,298.32,592.32,297.37z"/>
		<path class="st3" d="M604.38,297.42c2.22-1.2,5.13,1.08,4.41,3.53c-0.17,2.06-3.14,3.39-4.78,2.05
			C601.92,301.86,602.2,298.27,604.38,297.42z"/>
		<path class="st3" d="M616.31,297.45c3.76-2.08,6.59,4.41,2.65,5.79C615.42,305.07,612.76,298.97,616.31,297.45z"/>
		<g>
			<path class="st3" d="M458.01,311.95c-0.21-2.24,1.52-4.78,3.96-4.54c52.35-0.06,104.72-0.02,157.08-0.01
				c2.61-0.34,4.57,2.09,4.28,4.59c0.11,35.35-0.02,70.71,0.07,106.06c-0.05,2.05,0.06,5.13-2.44,5.79
				c-3.94,0.66-7.95,0.21-11.92,0.31c-43.34,0.08-86.68-0.15-130.02,0.11c0.43-3.4,0.36-6.84-0.09-10.24
				c42.71,0.24,85.42,0.09,128.13,0.08c1.95,0.76,2.09-3.49-0.04-2.79c-40.81-0.22-81.64,0.18-122.44-0.2
				c1.15-2.78-1.63-4.97-2.64-7.35c41.35,0,82.69-0.01,124.03,0.01c1.94,0.43,3.15-1,2.34-2.84c-42.66-0.1-85.33-0.1-127.99,0
				c-1.3-2.3-2.64-4.57-4.01-6.81c-2.23,1.28-4.44,2.59-6.63,3.92c-2.95-2.07-6.03-3.97-9.4-5.28c-0.05-2.37-0.03-4.74,0.04-7.11
				c-0.58-0.08-1.74-0.23-2.32-0.31C458,360.87,457.95,336.41,458.01,311.95z M496.44,318.46c-10.23,2.48-19.2,9.59-23.97,18.96
				c-4.75,9.1-5.38,20.22-1.76,29.82c3.03,8.14,9.04,15.13,16.65,19.33c7.97,4.53,17.66,5.73,26.56,3.66
				c9.1-2.19,17.28-7.95,22.35-15.83c5.4-8.22,7.24-18.66,5.04-28.24c-2.13-9.7-8.44-18.35-16.93-23.46
				C516.12,317.63,505.83,316.15,496.44,318.46z M577.39,324.55c-7.24,2.23-12.83,8.94-13.58,16.5c-1.05,7.9,3.31,16.15,10.43,19.72
				c5,2.64,11.13,2.95,16.38,0.86c6.73-2.62,11.75-9.23,12.3-16.46c0.66-6.14-1.84-12.49-6.5-16.54
				C591.38,324.04,583.87,322.46,577.39,324.55z M563.99,374.1c-0.86,1.45,0.1,3.37,1.9,2.77c11.03,0.05,22.06,0.02,33.1,0.02
				c1.76,0.61,3.04-1.2,2.07-2.75C588.71,373.89,576.34,373.97,563.99,374.1z M563.96,382.11c-0.01,0.67-0.02,2.02-0.03,2.69
				c15.69,0.45,31.42,0.13,47.12,0.17c2.49,0.68,2.41-3.64-0.03-2.95C595.34,382.06,579.64,381.88,563.96,382.11z"/>
		</g>
		<g>
			<path class="st3" d="M500.52,320.7c17.39-2.89,35.32,10.09,38.15,27.45c3.46,16.53-7.59,34.3-23.84,38.71
				c-15.36,4.91-33.28-3.2-40.04-17.76c-7.14-13.91-2.73-32.29,9.77-41.61C489.18,323.89,494.73,321.53,500.52,320.7z
				 M483.91,343.08c-1.59,1.53,0.29,3.39,2.02,2.8c13.07,0,26.14,0.02,39.21-0.01c1.95,0.62,3.16-2.57,0.85-2.92
				C511.97,342.91,497.91,342.65,483.91,343.08z M475.82,353.12c0.08,0.65,0.25,1.94,0.33,2.58c18.95,0.15,37.91,0.04,56.86,0.06
				c2.34,0.66,2.53-3.5,0.13-2.86C514.04,353.01,494.9,352.56,475.82,353.12z M483.79,362.9c-1.39,1.68,0.38,3.3,2.11,2.85
				c13.35-0.03,26.7,0.11,40.05-0.07c1.57,0.09,1.95-3.1,0.09-2.86C511.96,362.77,497.86,362.6,483.79,362.9z"/>
		</g>
		<path class="st3" d="M579.1,327.18c9.59-2.92,20.35,4.83,20.86,14.78c1.04,9.11-6.81,17.89-15.94,18.06
			c-8.21,0.47-16.02-5.95-17.16-14.08C565.34,337.75,571.05,329.15,579.1,327.18z"/>
		<path class="st3" d="M446.38,406.41c8.06-3.18,17.85,2.94,18.55,11.56c1.08,7.36-4.7,14.78-12.1,15.53
			c-7.46,1.2-15.12-4.78-15.69-12.33C436.29,414.88,440.34,408.4,446.38,406.41z"/>
		<path class="st3" d="M65.31,417.34c1.21-1,3.07-1.17,4.14,0.12c1.73,1.74,0.08,5.15-2.41,4.67
			C64.74,422.08,63.68,418.82,65.31,417.34z"/>
		<path class="st3" d="M76.12,417.07c3.01-2.1,6.24,2.1,3.62,4.52C76.8,423.89,73.33,419.38,76.12,417.07z"/>
		<g>
			<path class="st3" d="M61.64,425.6c24.91-0.37,49.82,0.07,74.72-0.22c0.84,11.32,10.35,21.08,21.66,22.14
				c-0.06,19.91,0.02,39.82-0.05,59.74c-5.39,0.16-11.93-1.27-15.85,3.52c-22.15,0.04-44.3-0.2-66.44,0.12
				c0.02,0.79,0.06,2.37,0.08,3.16c21.6,0.21,43.2,0.01,64.79,0.1c-0.34,4.67-0.11,9.37-0.17,14.05
				c-24.48,0.15-48.96-0.03-73.43,0.1c-1.92,0.02-3.82-0.23-5.72-0.48c-1.15-3.52-0.63-7.24-0.7-10.86c0.02-29-0.02-58.01,0-87.01
				C60.4,428.39,61.05,426.99,61.64,425.6z M93.36,445.34c-3.55,7.54-0.75,17.2,6.18,21.78c5.76,3.83,13.61,3.8,19.4,0.06
				c3.4-2.44,6.09-5.92,7.19-9.99c2.44-8.28-2.29-17.85-10.39-20.88C107.42,432.81,96.86,436.98,93.36,445.34z M91.35,482.47
				c-1.57,1.1,0,3.57,1.74,3.02c11.01,0,22.03,0.07,33.05-0.04c2.22,0.1,2.13-3.77-0.08-3.38c-11.39-0.11-22.79-0.11-34.18,0.01
				L91.35,482.47z M77.86,490.9c-0.47,1.53,0.09,3.66,2.11,3.22c19.69,0.02,39.39,0.08,59.08-0.03c2.36,0.45,2.45-3.87,0.04-3.41
				C118.69,490.75,98.24,490.3,77.86,490.9z M77.09,499.88c0.02,0.72,0.07,2.16,0.09,2.89c1.26,0.17,2.52,0.26,3.79,0.26
				c19.7-0.09,39.41,0.07,59.11-0.08c2.13,0.33,2.22-3.65,0.01-3.37c-19.68-0.17-39.38,0-59.07-0.09
				C79.69,499.46,78.38,499.59,77.09,499.88z"/>
		</g>
	</g>
	<g>
		<path class="st4" d="M195.81,98.25c11.4,0.01,22.81,0.01,34.21,0c0.24,28.58,0.05,57.17,0.09,85.75
			c-11.45,0.01-22.91,0.02-34.36,0C195.77,155.42,195.64,126.83,195.81,98.25z"/>
		<g>
			<path class="st4" d="M551.88,125.77c5.08-0.02,10.17-0.02,15.25-0.01c-0.01,2.03-0.01,4.06,0,6.09c2.78,1.05,5.25,2.71,7.77,4.27
				c1.81-1.12,3.6-2.31,5.62-3.05c2.31,4.42,4.96,8.66,7.38,13.03c-1.81,1.04-3.62,2.08-5.43,3.1c0.3,2.89,0.32,5.8,0.1,8.69
				c1.88,1.07,3.76,2.15,5.64,3.26c-2.38,4.44-5.06,8.72-7.47,13.15c-1.86-1.04-3.73-2.08-5.6-3.1c-0.59,0.46-1.79,1.4-2.39,1.86
				c-1.64,1.02-3.34,1.93-5.02,2.87c0,2.02,0.01,4.03,0.03,6.05c-0.65,0.04-1.96,0.11-2.61,0.15c-4.17,0.05-8.34,0-12.51-0.01
				c-0.01-1.93-0.01-3.86-0.01-5.79c-2.91-1.15-5.63-2.7-8.28-4.36c-1.6,0.98-3.21,1.96-4.8,2.94c-2.01-2.86-3.61-5.98-5.4-8.97
				c-0.77-1.35-1.52-2.71-2.27-4.06c1.52-1.02,3.06-2.01,4.67-2.89c-0.26-3.08-0.34-6.17-0.07-9.24c-1.67-1.09-3.34-2.18-5.08-3.16
				c2.63-4.28,5.05-8.68,7.61-13.01c1.67,0.93,3.35,1.87,5.02,2.82c2.36-1.92,5.01-3.43,7.83-4.55
				C551.86,129.82,551.87,127.8,551.88,125.77z M556.48,144.52c-7.35,1.96-9.31,12.77-3.11,17.16c5.32,4.58,14.64,1.29,15.8-5.67
				C571.05,148.92,563.33,141.96,556.48,144.52z"/>
		</g>
		<path class="st4" d="M107.28,134.49c3.52,0.01,7.04,0.01,10.57,0c0.01,1.32,0.03,2.65,0.05,3.98c-2.21,0.04-4.42,0.06-6.63,0.04
			c-0.03,2.3-0.04,4.6,0.05,6.91c-1.35,0.23-2.71,0.25-4.08,0.21C107.25,141.91,107.21,138.2,107.28,134.49z"/>
		<path class="st4" d="M131.49,134.51c3.84-0.02,7.68-0.03,11.52,0.02c0,0.99,0,2.97,0,3.96c-3.83,0.04-7.67,0.02-11.51,0.02
			C131.5,137.51,131.5,135.51,131.49,134.51z"/>
		<path class="st4" d="M156.78,134.5c3.82,0,7.64-0.02,11.47,0.02c0,0.99,0.01,2.98,0.01,3.98c-3.84,0.02-7.68,0.03-11.53-0.02
			C156.74,137.49,156.77,135.5,156.78,134.5z"/>
		<g>
			<path class="st4" d="M601.12,154.01c2.11-0.05,4.23-0.02,6.35,0.1c0.05,0.66,0.14,1.98,0.18,2.64c1.8,0.96,3.69,2.11,5.45,0.32
				c1.1,1.83,2.15,3.69,3.11,5.6c-0.54,0.34-1.62,1.01-2.17,1.35c0.03,1.22,0.07,2.45,0.12,3.68c0.56,0.33,1.69,0.98,2.25,1.3
				c-1,1.89-2.06,3.74-3.19,5.56c-1.87-1.89-3.7-0.41-5.42,0.73c-0.02,0.65-0.06,1.95-0.08,2.6c-2.13,0.01-4.24,0-6.35-0.04
				c-0.09-0.63-0.27-1.89-0.35-2.52c-1.74-0.99-3.56-2.2-5.36-0.55c-1.01-1.76-2.05-3.5-3.14-5.2c0.46-0.4,1.4-1.21,1.87-1.61
				c0.07-2.05,0.59-4.49-2.01-5.08c0.99-1.8,1.98-3.61,2.96-5.42c0.61,0.21,1.82,0.64,2.42,0.85c1-0.55,2.01-1.1,3.03-1.64
				C600.87,156.01,601.04,154.68,601.12,154.01z M602.4,162.69c-2.35,1.18-2.56,5.01-0.24,6.36c2.3,1.69,5.91-0.21,5.84-3.08
				C608.09,163.21,604.75,161.26,602.4,162.69z"/>
		</g>
		<path class="st4" d="M436.73,232.32c3.84-0.11,7.68-0.06,11.53-0.03c0.01,3.81,0,7.62,0,11.44c-3.84,0.04-7.67,0.03-11.51,0.02
			C436.73,239.94,436.76,236.13,436.73,232.32z"/>
		<path class="st4" d="M136.12,260.54c11.11-0.09,22.21-0.02,33.32-0.04c0.19,11.11-0.02,22.22,0.1,33.32
			c-11.13,0.17-22.27,0.02-33.4,0.08C136.1,282.78,136.14,271.66,136.12,260.54z"/>
		<path class="st4" d="M49,304.75c11.16,0,22.31,0.01,33.47,0c0.05,11.13,0.02,22.27,0.01,33.4c-11.16-0.03-22.33-0.01-33.5-0.01
			C49.03,327.01,48.98,315.88,49,304.75z"/>
		<path class="st4" d="M138.17,413.87c3.46-7.85,11.13-13.79,19.75-14.6c8-1,16.19,2.46,21.37,8.58
			c-6.31,5.97-12.48,12.09-18.92,17.92c-2.49-3.81-4.71-7.79-7.34-11.51c-1.94,1.35-3.78,2.83-5.35,4.6
			c3.78,6.08,7.5,12.2,11.44,18.17c8.21-7.34,15.93-15.21,24.02-22.67c2.32,6.17,2.27,13.29-0.6,19.28
			c-3.59,7.9-11.7,13.38-20.35,13.96c-1.39,0.01-2.78-0.01-4.17-0.08c-11.31-1.06-20.82-10.82-21.66-22.14
			C136.17,421.46,136.79,417.54,138.17,413.87z"/>
		<g>
			<path class="st4" d="M142.12,510.78c3.92-4.79,10.46-3.36,15.85-3.52c1.4-0.01,2.8-0.01,4.2,0c5.46,0.17,10.97-0.39,16.4,0.32
				c4.66,0.99,7.09,5.81,6.92,10.27c3.09,0.77,6.25,1.86,8.5,4.24c5.4,5.16,5.39,14.75-0.04,19.88c-2.24,2.38-5.41,3.42-8.5,4.2
				c0.45,5.43-2.39,10.71-7.43,12.97c-9.58,0.76-19.24,0.18-28.85,0.31c-4.35-1.29-8.14-4.92-8.63-9.57
				c-0.38-5.22-0.06-10.45-0.17-15.67c0-2.01,0-4,0.01-6c0.06-4.68-0.17-9.38,0.17-14.05C141.02,513,141.55,511.88,142.12,510.78z
				 M185.55,539.73c3.38-1.02,6.26-4.03,6.18-7.7c0.1-3.68-2.78-6.7-6.14-7.73C185.21,529.42,185.27,534.59,185.55,539.73z"/>
		</g>
	</g>
	<g>
		<path class="st5" d="M280.4,100.24c1.39-1.74,4.17-0.37,3.7,1.81c0.08,24.66,0,49.32,0.04,73.99c0.04,1.53-0.02,3.68-2.12,3.61
			c-2.02-0.03-1.95-2.18-1.9-3.61c0.03-23.32,0.02-46.64,0.01-69.96C280.18,104.14,279.91,102.14,280.4,100.24z"/>
	</g>
	<g>
		<path class="st6" d="M290.84,110.35c-2.12,0.02-2.24-2.7-0.93-3.83c7.36,0.02,14.73-0.04,22.09,0.02
			c2.43-0.53,2.53,4.17,0.09,3.79C305.01,110.43,297.92,110.4,290.84,110.35z"/>
		<path class="st6" d="M289.89,117.5c-0.88-1.17-1.39-2.82,0.1-3.76c9.08-0.13,18.19-0.26,27.28,0.07
			c-0.01,0.87-0.01,2.62-0.01,3.49C308.15,117.76,299.01,117.37,289.89,117.5z"/>
	</g>
	<g>
		<path class="st7" d="M235.18,115.21c6.27-0.17,12.55-0.08,18.83-0.04c2.2-0.44,3,2.98,1.03,3.74c-6.39,0.2-12.78,0.1-19.16,0.06
			C233.57,119.46,232.9,115.61,235.18,115.21z"/>
		<path class="st7" d="M235.42,162.56c10.38-0.11,20.77-0.1,31.15,0c2.48,0.06,1.91,4.39-0.56,3.82c-10,0.01-20.01,0.03-30.01-0.01
			C233.48,166.92,232.89,162.6,235.42,162.56z"/>
		<path class="st7" d="M256.23,207.56c1.29,0.04,2.59,0.08,3.89,0.12c0.01,3.85,0.03,7.7-0.02,11.55c-1.3,0.03-2.59,0.06-3.88,0.1
			C256.07,215.41,256.08,211.48,256.23,207.56z"/>
		<path class="st7" d="M256.13,232.9c1.32-0.01,2.63-0.01,3.96-0.01c0.01,0.87,0.05,2.63,0.07,3.5c1.24-0.02,2.49-0.04,3.73-0.06
			c0.05,1.34,0.1,2.69,0.15,4.04c-2.64,0.02-5.27,0.02-7.91,0C256.13,237.88,256.13,235.39,256.13,232.9z"/>
		<path class="st7" d="M585.55,236.22c3.92-0.11,7.84-0.16,11.76,0.03c-0.05,1.24-0.08,2.49-0.1,3.74c-3.84,0.04-7.68,0-11.51,0.04
			C585.64,238.76,585.59,237.48,585.55,236.22z"/>
		<path class="st7" d="M637.12,377.65c3.83-0.04,7.66-0.02,11.5-0.03c0.01,1,0.02,2.99,0.03,3.99c-3.85,0.04-7.7,0.06-11.55-0.03
			C637.11,380.59,637.12,378.63,637.12,377.65z"/>
	</g>
	<g>
		<g>
			<path class="st8" d="M348.05,116.85c36.73-2.48,73.97,1.7,109.04,13c12.48,4.02,24.66,8.96,36.55,14.5
				c0.97,0.46,1.85,1.08,2.62,1.86c-24.75,0.23-49.51-0.02-74.27,0.11c-4.47,0-8.25,4.25-7.94,8.68
				c-0.15,37.01-0.01,74.03-0.08,111.04c-0.18,2.93,0.71,6,3.07,7.89c2.71,2.41,6.57,1.89,9.93,1.96
				c45.69-0.09,91.38,0.03,137.07-0.05c4.77,0.33,9.14-4.02,8.7-8.81c0-19.34-0.02-38.69,0-58.04c0.02-2.69,0.08-5.4-0.28-8.07
				c1.2,0.47,2.43,0.95,3.58,1.56c0.64,1.44,1.45,2.81,2.6,3.91c26.47,27.94,47.34,61.21,60.8,97.28
				c14.34,38.25,20.34,79.57,17.68,120.32c-3.18,47.97-18.28,95.26-44.4,135.67c-8.11-0.61-16.27-0.14-24.4-0.26
				c0.1-0.86,0.29-2.58,0.39-3.44c1.68-10.6,3.34-21.2,4.96-31.81c1.77,0,3.54-0.03,5.32-0.04c0.01-2.42,0-4.83-0.02-7.24
				c-0.8,0-2.41,0-3.22,0.01c11.7-12.05,14-30.33,11.81-46.31c-0.2,0.51-0.6,1.52-0.8,2.02c-4.08,5.2-9.4,9.17-14.54,13.23
				c-0.7-5.24-1.9-10.42-3.66-15.41c-0.25-0.78-0.49-1.55-0.73-2.32c-2.16,6.45-6.64,11.81-11.25,16.68
				c-2.89-8.17-7.56-15.61-12.84-22.45c-1.07-1.38-2.17-2.72-3.25-4.08c0.59,11.63-5.27,22.28-10,32.54
				c-4.72-4.9-9.07-10.26-12.16-16.35c-0.19-0.39-0.57-1.16-0.76-1.54c-5.01,13.98-7.68,31.07,1.44,44
				c-1.39-0.01-2.77-0.01-4.14-0.01c-0.02,2.4-0.01,4.81,0.01,7.23c1.81,0.01,3.63,0.03,5.46,0.04c0.18,1.34,0.39,2.68,0.6,4.03
				c1.71,10.39,3.28,20.8,4.88,31.2c-8.99,0.06-17.98-0.12-26.97,0.1c3.86-3.35,4.37-11.05-1.09-13.06
				c2.53-4.49,2.86-9.72,3.83-14.67c4.29-23.24,8.44-46.5,12.78-69.72c0.48-2.86,1.07-6.11-0.75-8.64c-1.56-2.6-4.68-3.72-7.59-3.65
				c-21.65-0.02-43.31,0.02-64.96-0.01c0.04-1.19,0.08-2.37,0.13-3.54c3.18-1.51,6.21-3.33,8.95-5.54c2.23,1.22,4.45,2.44,6.68,3.66
				c2.63-4.47,5.2-8.97,7.8-13.46c45.11,0.35,90.23,0.03,135.35,0.16c3.64,0.23,7.58-1.31,9.34-4.66c1.35-2.56,1.01-5.56,1.08-8.35
				c-0.1-38.33,0.04-76.66-0.06-114.99c0.29-5.08-4.34-9.46-9.36-9.12c-53.33-0.11-106.66-0.02-159.99-0.04
				c-5.23-0.63-10.28,3.8-9.96,9.13c-0.04,27.46-0.03,54.93-0.01,82.39c-2.99,0-5.98,0.01-8.97-0.02c-0.17,2.46-0.28,4.93-0.25,7.41
				c-3.47,1.39-6.64,3.39-9.71,5.49c-1.98-1.14-3.97-2.25-5.96-3.34c-3.08,5.28-6.19,10.54-9.14,15.89
				c1.97,1.18,3.95,2.35,5.94,3.49c-0.22,3.84-0.2,7.7,0.32,11.52c-1.78,1.3-4.68,1.84-5.58,3.86c2.83,5.15,5.95,10.16,8.75,15.34
				c2.21-1.04,4.35-2.23,6.46-3.47c2.97,2.14,6.2,3.93,9.67,5.18c0.1,1,0.22,2,0.33,3.01c-14.63,0.04-29.27-0.04-43.91,0.03
				c-2.32-0.09-4.32,1.15-6.27,2.2c-3.56-5.63-7.29-11.16-10.66-16.91c-1.73-3-4.17-5.51-7.04-7.43c3.49-9.43,5.19-19.54,4.76-29.59
				c-0.72-13.27-1.78-26.52-2.41-39.79c4.09-3.9,5.07-11.47-0.17-14.84c-0.26-17.56-7.96-34.82-20.81-46.78
				c-9.04-8.48-20.83-14.24-33.27-15.19c-12.81-1.12-25.8,3.04-36.05,10.7c-15.97,11.83-26,31.35-26.12,51.25
				c-5.26,3.36-4.41,10.96-0.25,14.86c-0.52,11.26-1.39,22.5-2.07,33.75c-1.13,11.94,0.09,24.17,4.35,35.42
				c-10.76,10.31-19.59,22.49-27.61,35c-16.02,25.42-27.89,53.24-37.23,81.74c-0.95,3.12-2.54,6.46-1.28,9.73
				c0.68,2.44,2.87,3.92,4.62,5.57c-7.81-0.33-15.66,0.3-23.44-0.31c5.04-2.26,7.88-7.54,7.43-12.97c3.09-0.78,6.26-1.82,8.5-4.2
				c5.43-5.13,5.44-14.72,0.04-19.88c-2.25-2.38-5.41-3.47-8.5-4.24c0.17-4.46-2.26-9.28-6.92-10.27
				c-5.43-0.71-10.94-0.15-16.4-0.32c0.23-19.89,0.19-39.78,0.02-59.66c8.65-0.58,16.76-6.06,20.35-13.96
				c2.87-5.99,2.92-13.11,0.6-19.28c4-3.89,8.11-7.67,12.07-11.6c-1.38-2-2.81-3.95-4.3-5.85c-3.96,3.55-7.77,7.27-11.62,10.94
				c-5.18-6.12-13.37-9.58-21.37-8.58c-8.62,0.81-16.29,6.75-19.75,14.6c-19.35-0.33-38.71-0.08-58.07-0.12
				c-0.18-18.29,0.35-36.73,3.76-54.73c32.07-0.09,64.15,0.02,96.22-0.04c4.38,0.16,8.59-3.46,8.52-7.95
				c0.08-37.69,0-75.39,0.04-113.08c0.32-4.69-4.11-8.77-8.7-8.54c-13.35-0.1-26.71,0.06-40.06-0.07
				c8.74-12.46,19.47-23.45,30.35-34.07c2.73-2.54,5.3-5.32,8.45-7.37c0.13,3.48-0.53,7.54,2,10.36c1.95,2.53,5.28,3.14,8.29,3.06
				c46.67-0.07,93.35,0.05,140.01-0.07c4.94,0.34,9.11-4.35,8.57-9.18c-0.03-24.67,0.03-49.33-0.03-73.99
				C340.96,117.19,344.54,117.25,348.05,116.85z M256.23,207.56c-0.15,3.92-0.16,7.85-0.01,11.77c1.29-0.04,2.58-0.07,3.88-0.1
				c0.05-3.85,0.03-7.7,0.02-11.55C258.82,207.64,257.52,207.6,256.23,207.56z M256.13,232.9c0,2.49,0,4.98,0,7.47
				c2.64,0.02,5.27,0.02,7.91,0c-0.05-1.35-0.1-2.7-0.15-4.04c-1.24,0.02-2.49,0.04-3.73,0.06c-0.02-0.87-0.06-2.63-0.07-3.5
				C258.76,232.89,257.45,232.89,256.13,232.9z M281.07,236.31c-0.18,1.34-0.26,2.69-0.23,4.05c3.83,0.05,7.67,0.03,11.5,0
				c0.02-1.32,0.03-2.64,0.05-3.95C288.61,236.34,284.84,236.46,281.07,236.31z M309.27,236.4c-0.03,1.28-0.05,2.56-0.08,3.85
				c3.87,0.2,7.78,0.29,11.64-0.05c-0.05-1.27-0.09-2.54-0.11-3.8C316.9,236.38,313.09,236.38,309.27,236.4z M585.55,236.22
				c0.04,1.26,0.09,2.54,0.15,3.81c3.83-0.04,7.67,0,11.51-0.04c0.02-1.25,0.05-2.5,0.1-3.74
				C593.39,236.06,589.47,236.11,585.55,236.22z M337.64,236.4c0,1-0.01,2.99-0.02,3.99c3.87,0,7.75-0.01,11.62,0.01
				c0.01-1,0.01-2.98,0.01-3.97C345.38,236.35,341.51,236.38,337.64,236.4z M365.99,236.4c0,0.99,0.01,2.98,0.02,3.97
				c3.86,0.03,7.71,0.01,11.58,0.03c0.02-1,0.06-2.99,0.08-3.99C373.77,236.36,369.88,236.38,365.99,236.4z M394.47,236.4
				c0.01,1,0.04,3,0.05,3.99c3.84-0.01,7.67,0.02,11.5-0.02c0-1-0.01-2.98-0.02-3.98C402.15,236.38,398.31,236.36,394.47,236.4z
				 M107.23,363.1c0.02,3.81,0,7.63,0.03,11.45c1.34-0.04,2.68-0.08,4.02-0.13c-0.04-3.82-0.03-7.64-0.02-11.46
				C109.92,363,108.58,363.05,107.23,363.1z M637.12,377.65c0,0.98-0.01,2.94-0.02,3.93c3.85,0.09,7.7,0.07,11.55,0.03
				c-0.01-1-0.02-2.99-0.03-3.99C644.78,377.63,640.95,377.61,637.12,377.65z M107.24,380.52c0,3.83-0.01,7.67,0.02,11.5
				c0.99,0,2.99-0.01,3.98-0.01c0.02-3.84,0.01-7.68,0.02-11.51C110.25,380.5,108.25,380.52,107.24,380.52z M107.28,397.99
				c-0.06,3.84-0.05,7.68-0.02,11.52c1,0,3-0.01,4-0.01c-0.01-3.83,0-7.67,0-11.49C110.26,398,108.27,398,107.28,397.99z"/>
		</g>
		<path class="st8" d="M246.1,529.08c1.59-3.61,3.5-7.14,5.79-10.36c0.2,4.74,0.12,9.51,0.04,14.26
			C249.4,533.28,245.5,532.46,246.1,529.08z"/>
		<path class="st8" d="M110.79,534.28c9.86-0.02,19.72,0.11,29.58-0.07c0.11,5.22-0.21,10.45,0.17,15.67
			c0.49,4.65,4.28,8.28,8.63,9.57c-8.03,0-16.08-0.35-24.1,0.2C119.69,551.59,114.74,543.14,110.79,534.28z"/>
	</g>
	<g>
		<path class="st9" d="M289.05,122.95c-0.48-1.68,1.64-2.42,2.93-2.21c8.71,0.08,17.42-0.07,26.13,0.08
			c0.85,1.07,1.29,3.22-0.42,3.72c-8.58,0.25-17.17,0.02-25.75,0.11C290.77,124.72,288.95,124.61,289.05,122.95z"/>
	</g>
	<g>
		<path class="st10" d="M235.39,123.44c9.75-0.12,19.51-0.1,29.26-0.01c2.63,0.02,1.88,4.44-0.61,3.83
			c-9.67-0.04-19.34,0.11-29-0.07C233.15,126.64,233.42,123.51,235.39,123.44z"/>
	</g>
	<g>
		<path class="st11" d="M290.09,128.08c8.6-0.48,17.26-0.03,25.89-0.21c1.43,0.25,3.82-0.64,4.44,1.21
			c0.72,1.52-0.71,3.07-2.26,2.77c-9.05,0.03-18.1,0.08-27.15-0.03C288.9,132.02,288.17,128.89,290.09,128.08z"/>
		<path class="st11" d="M483.91,343.08c14-0.43,28.06-0.17,42.08-0.13c2.31,0.35,1.1,3.54-0.85,2.92
			c-13.07,0.03-26.14,0.01-39.21,0.01C484.2,346.47,482.32,344.61,483.91,343.08z"/>
	</g>
	<g>
		<path class="st12" d="M235.29,132.33c10.21-0.14,20.43-0.04,30.65-0.05c2.21-0.54,3.25,3.09,1.06,3.79
			c-10.36,0.16-20.73,0.04-31.08,0.05C233.55,136.65,232.82,132.54,235.29,132.33z"/>
		<path class="st12" d="M235.38,152.46c10.18-0.15,20.38-0.07,30.57-0.04c2.29-0.57,3.24,3.27,0.97,3.84
			c-10.32,0.29-20.65,0.1-30.97,0.1C233.45,156.84,232.92,152.58,235.38,152.46z"/>
		<path class="st12" d="M517.24,220.42l0.73-0.34c10.71-0.13,21.42-0.09,32.13-0.02c2.43-0.27,2.43,4.15-0.02,3.8
			c-10.37,0.05-20.76,0.01-31.13,0.02C516.96,224.44,515.67,221.68,517.24,220.42z"/>
		<path class="st12" d="M636.14,236.14c3.82-0.01,7.65-0.03,11.48,0.02c0.01,1.25,0.03,2.5,0.06,3.76
			c-3.86,0.17-7.72,0.09-11.58,0.06C636.11,238.7,636.12,237.42,636.14,236.14z"/>
		<g>
			<path class="st12" d="M577.39,324.55c6.48-2.09,13.99-0.51,19.03,4.08c4.66,4.05,7.16,10.4,6.5,16.54
				c-0.55,7.23-5.57,13.84-12.3,16.46c-5.25,2.09-11.38,1.78-16.38-0.86c-7.12-3.57-11.48-11.82-10.43-19.72
				C564.56,333.49,570.15,326.78,577.39,324.55z M579.1,327.18c-8.05,1.97-13.76,10.57-12.24,18.76
				c1.14,8.13,8.95,14.55,17.16,14.08c9.13-0.17,16.98-8.95,15.94-18.06C599.45,332.01,588.69,324.26,579.1,327.18z"/>
		</g>
	</g>
	<g>
		<path class="st13" d="M235.33,142.42c10.45-0.07,20.91-0.08,31.36,0.01c2.34,0.05,1.81,4.34-0.6,3.81
			c-10.04,0.04-20.08,0.04-30.12,0C233.46,146.84,232.94,142.49,235.33,142.42z"/>
	</g>
	<g>
		<path class="st14" d="M291.44,176.89c0.19-10.8-0.1-21.61,0.15-32.4c8.5,0.07,17.01-0.03,25.52,0.05
			c0.07,10.8-0.01,21.61,0.04,32.41C308.58,177.01,300.01,177.13,291.44,176.89z"/>
		<g>
			<path class="st14" d="M582.15,178.23c0.55-0.83,1.12-1.64,1.71-2.44c2.06,1.1,4.15,2.16,6.22,3.27c-0.37,0.88-0.74,1.77-1.1,2.66
				c0.71,1.14,1.41,2.3,2.1,3.47c0.78-0.01,2.35-0.04,3.13-0.05c0.15,2.44,0.26,4.89,0.32,7.34c-0.72,0.04-2.17,0.12-2.89,0.17
				c-0.6,1.19-1.2,2.39-1.79,3.58c0.46,0.94,0.94,1.89,1.43,2.83c-1.98,1.36-4,2.65-6.04,3.89c-0.65-0.81-1.27-1.64-1.87-2.47
				c-2.39-0.11-4.8,0.37-5.41,3.01c-0.48-0.25-1.44-0.75-1.92-1.01c-1.15-0.61-2.38-1.09-3.58-1.56c-0.13-1.2-0.18-2.4-0.17-3.6
				c-0.6-0.98-1.2-1.95-1.8-2.92c-1.09-0.24-2.16-0.48-3.24-0.72c-0.08-2.23-0.14-4.45-0.18-6.68c0.63-0.15,1.9-0.45,2.54-0.6
				c0.61-1.17,1.23-2.35,1.86-3.51c-0.37-0.93-0.74-1.86-1.1-2.79c0.81-0.58,1.67-1.1,2.49-1.68c1.14-0.73,2.29-1.46,3.44-2.18
				c0.41,0.55,1.21,1.66,1.61,2.22C579.32,178.39,580.73,178.31,582.15,178.23z M579.22,185.41c-3.02,0.74-3.95,5.05-1.77,7.15
				c2.01,2.35,6.34,1.46,7.27-1.49C586.18,187.82,582.53,184.04,579.22,185.41z"/>
		</g>
		<path class="st14" d="M530.49,191.62c5.76-2.29,12.89,1.37,14.24,7.45c1.68,5.92-2.67,12.58-8.79,13.35
			c-5.49,0.98-11.24-2.97-12.25-8.46C522.52,198.88,525.59,193.36,530.49,191.62z"/>
		<path class="st14" d="M436.77,211.65c3.82-0.04,7.64-0.02,11.47,0c0.01,3.86,0.02,7.73,0,11.6c-3.83,0.02-7.66,0.03-11.48-0.01
			C436.73,219.38,436.73,215.51,436.77,211.65z"/>
		<path class="st14" d="M49,260.52c11.17-0.01,22.34-0.02,33.5,0c-0.05,11.13,0.12,22.26-0.09,33.39
			c-11.13-0.06-22.26-0.03-33.38-0.01C48.97,282.77,49.02,271.64,49,260.52z"/>
		<path class="st14" d="M92.55,304.75c11.14,0.01,22.29,0.01,33.44,0.01c0.02,11.12,0.06,22.25-0.02,33.37
			c-11.15,0.03-22.3,0.01-33.44,0.02C92.5,327.02,92.46,315.88,92.55,304.75z"/>
		<g>
			<path class="st14" d="M496.44,318.46c9.39-2.31,19.68-0.83,27.94,4.24c8.49,5.11,14.8,13.76,16.93,23.46
				c2.2,9.58,0.36,20.02-5.04,28.24c-5.07,7.88-13.25,13.64-22.35,15.83c-8.9,2.07-18.59,0.87-26.56-3.66
				c-7.61-4.2-13.62-11.19-16.65-19.33c-3.62-9.6-2.99-20.72,1.76-29.82C477.24,328.05,486.21,320.94,496.44,318.46z M500.52,320.7
				c-5.79,0.83-11.34,3.19-15.96,6.79c-12.5,9.32-16.91,27.7-9.77,41.61c6.76,14.56,24.68,22.67,40.04,17.76
				c16.25-4.41,27.3-22.18,23.84-38.71C535.84,330.79,517.91,317.81,500.52,320.7z"/>
		</g>
		<g>
			<path class="st14" d="M442.05,385.35c2.99,0.03,5.98,0.02,8.97,0.02c2.32,0.02,4.65-0.08,6.98-0.03
				c0.58,0.08,1.74,0.23,2.32,0.31c-0.07,2.37-0.09,4.74-0.04,7.11c3.37,1.31,6.45,3.21,9.4,5.28c2.19-1.33,4.4-2.64,6.63-3.92
				c1.37,2.24,2.71,4.51,4.01,6.81c0.53,0.94,1.07,1.88,1.62,2.83c1.01,2.38,3.79,4.57,2.64,7.35c-2.1,0.51-3.9,1.71-5.65,2.91
				c0.45,3.4,0.52,6.84,0.09,10.24c2.24,1.45,4.56,2.76,6.89,4.06c-0.42,0.84-0.85,1.69-1.28,2.53c-2.6,4.49-5.17,8.99-7.8,13.46
				c-2.23-1.22-4.45-2.44-6.68-3.66c-2.74,2.21-5.77,4.03-8.95,5.54c-0.05,1.17-0.09,2.35-0.13,3.54c-6.06,0.02-12.13,0.03-18.19,0
				c-0.11-1.01-0.23-2.01-0.33-3.01c-3.47-1.25-6.7-3.04-9.67-5.18c-2.11,1.24-4.25,2.43-6.46,3.47c-2.8-5.18-5.92-10.19-8.75-15.34
				c0.9-2.02,3.8-2.56,5.58-3.86c-0.52-3.82-0.54-7.68-0.32-11.52c-1.99-1.14-3.97-2.31-5.94-3.49c2.95-5.35,6.06-10.61,9.14-15.89
				c1.99,1.09,3.98,2.2,5.96,3.34c3.07-2.1,6.24-4.1,9.71-5.49C441.77,390.28,441.88,387.81,442.05,385.35z M446.38,406.41
				c-6.04,1.99-10.09,8.47-9.24,14.76c0.57,7.55,8.23,13.53,15.69,12.33c7.4-0.75,13.18-8.17,12.1-15.53
				C464.23,409.35,454.44,403.23,446.38,406.41z"/>
		</g>
		<path class="st14" d="M93.36,445.34c3.5-8.36,14.06-12.53,22.38-9.03c8.1,3.03,12.83,12.6,10.39,20.88
			c-1.1,4.07-3.79,7.55-7.19,9.99c-1.24-2.08-2.78-3.97-4.7-5.46c3.57-3.08,4.06-9.11,0.35-12.27c-3.72-3.57-10.61-2.19-12.54,2.63
			c-1.63,3.32-0.28,7.17,2.23,9.63c-1.85,1.56-3.41,3.4-4.74,5.41C92.61,462.54,89.81,452.88,93.36,445.34z"/>
		<path class="st14" d="M91.35,482.47l0.53-0.39c11.39-0.12,22.79-0.12,34.18-0.01c2.21-0.39,2.3,3.48,0.08,3.38
			c-11.02,0.11-22.04,0.04-33.05,0.04C91.35,486.04,89.78,483.57,91.35,482.47z"/>
	</g>
	<g>
		<path class="st15" d="M107.26,159.27c1.37-0.01,2.77-0.14,4.1,0.3c-0.31,3.74,0.15,7.51-0.3,11.24c-1.27-0.04-2.54-0.07-3.81-0.1
			C107.23,166.9,107.24,163.08,107.26,159.27z"/>
	</g>
	<g>
		<path class="st16" d="M107.26,184.49c1,0.01,3,0.03,4,0.04c-0.01,3.82,0.01,7.65-0.02,11.48c-1,0-3,0-4,0
			C107.23,192.17,107.21,188.33,107.26,184.49z"/>
	</g>
	<g>
		<path class="st17" d="M107.31,209.7c1.31,0.02,2.62,0.05,3.94,0.08c-0.03,3.82,0.1,7.64-0.09,11.46
			c-1.29,0.02-2.58,0.05-3.87,0.08C107.21,217.45,107.18,213.57,107.31,209.7z"/>
	</g>
	<g>
		<path class="st18" d="M517.17,231.39c1.51-0.69,3.24-0.29,4.86-0.39c9.34,0.07,18.68-0.07,28.02,0.05c2.6-0.38,2.42,4.19-0.1,3.79
			c-10.34,0.11-20.68,0.04-31.02,0.03C516.96,235.3,515.72,232.74,517.17,231.39z"/>
		<path class="st18" d="M107.23,363.1c1.35-0.05,2.69-0.1,4.03-0.14c-0.01,3.82-0.02,7.64,0.02,11.46
			c-1.34,0.05-2.68,0.09-4.02,0.13C107.23,370.73,107.25,366.91,107.23,363.1z"/>
	</g>
	<g>
		<path class="st19" d="M281.07,236.31c3.77,0.15,7.54,0.03,11.32,0.1c-0.02,1.31-0.03,2.63-0.05,3.95c-3.83,0.03-7.67,0.05-11.5,0
			C280.81,239,280.89,237.65,281.07,236.31z"/>
		<path class="st19" d="M517.22,242.29c1.47-0.72,3.2-0.31,4.8-0.42c9.34,0.06,18.68-0.04,28.02,0.03c2.61-0.17,2.47,4.28-0.09,3.92
			c-10.34,0.16-20.7,0.08-31.05,0.04C516.92,246.22,515.72,243.65,517.22,242.29z"/>
	</g>
	<g>
		<path class="st20" d="M309.27,236.4c3.82-0.02,7.63-0.02,11.45,0c0.02,1.26,0.06,2.53,0.11,3.8c-3.86,0.34-7.77,0.25-11.64,0.05
			C309.22,238.96,309.24,237.68,309.27,236.4z"/>
	</g>
	<g>
		<path class="st21" d="M610.88,236.13c3.84-0.01,7.69,0.02,11.55-0.02c0.01,1.29,0.04,2.59,0.07,3.89c-3.88,0.01-7.75,0.02-11.62,0
			C610.87,238.7,610.87,237.41,610.88,236.13z"/>
	</g>
	<g>
		<path class="st22" d="M661.37,236.18c2.9-0.05,5.81-0.05,8.72-0.04c0.04,2.51,0.16,5.03-0.15,7.54c-1.23-0.03-2.45-0.05-3.67-0.07
			c-0.01-1.18-0.02-2.37-0.02-3.55c-1.65-0.04-3.28-0.08-4.9-0.14C661.35,238.67,661.35,237.42,661.37,236.18z"/>
	</g>
	<g>
		<path class="st23" d="M337.64,236.4c3.87-0.02,7.74-0.05,11.61,0.03c0,0.99,0,2.97-0.01,3.97c-3.87-0.02-7.75-0.01-11.62-0.01
			C337.63,239.39,337.64,237.4,337.64,236.4z"/>
		<path class="st23" d="M365.99,236.4c3.89-0.02,7.78-0.04,11.68,0.01c-0.02,1-0.06,2.99-0.08,3.99c-3.87-0.02-7.72,0-11.58-0.03
			C366,239.38,365.99,237.39,365.99,236.4z"/>
		<path class="st23" d="M394.47,236.4c3.84-0.04,7.68-0.02,11.53-0.01c0.01,1,0.02,2.98,0.02,3.98c-3.83,0.04-7.66,0.01-11.5,0.02
			C394.51,239.4,394.48,237.4,394.47,236.4z"/>
	</g>
	<g>
		<path class="st24" d="M666.27,260.54c1.2-0.04,2.42-0.07,3.64-0.1c0.46,3.84,0.11,7.72,0.2,11.58c-1.3-0.02-2.6-0.03-3.89-0.04
			C666.24,268.16,666.22,264.35,666.27,260.54z"/>
		<path class="st24" d="M666.27,317.27c1.27-0.01,2.55-0.01,3.84,0c-0.04,3.84,0.17,7.69-0.14,11.52c-1.24-0.01-2.47-0.02-3.7-0.03
			C666.21,324.93,666.23,321.1,666.27,317.27z"/>
		<path class="st24" d="M666.32,345.58c1.26,0.03,2.54,0.06,3.83,0.09c-0.05,3.85-0.01,7.7-0.05,11.55
			c-1.26,0.03-2.53,0.06-3.77,0.1C666.18,353.41,666.19,349.49,666.32,345.58z"/>
		<path class="st24" d="M107.24,380.52c1.01,0,3.01-0.02,4.02-0.02c-0.01,3.83,0,7.67-0.02,11.51c-0.99,0-2.99,0.01-3.98,0.01
			C107.23,388.19,107.24,384.35,107.24,380.52z"/>
		<path class="st24" d="M107.28,397.99c0.99,0.01,2.98,0.01,3.98,0.02c0,3.82-0.01,7.66,0,11.49c-1,0-3,0.01-4,0.01
			C107.23,405.67,107.22,401.83,107.28,397.99z"/>
	</g>
	<g>
		<g>
			<path class="st25" d="M287.05,292.13c10.25-7.66,23.24-11.82,36.05-10.7c12.44,0.95,24.23,6.71,33.27,15.19
				c12.85,11.96,20.55,29.22,20.81,46.78c-4.24-1.66-8.61-0.65-12.25,1.83c-0.67,4.86-0.9,9.77-1.52,14.64
				c-0.59,5-5.28,9.09-10.31,9c-5.38,0.06-10.76,0.01-16.13,0.02c-4.87,0.17-9.71-2.38-12.29-6.51c-2.96-4.8-2.23-10.73-3.17-16.07
				c-1.17-0.04-2.34-0.06-3.49-0.09c-0.91,4.56-0.61,9.34-2.09,13.78c-1.98,5.2-7.3,8.93-12.88,8.87c-5.7,0.02-11.4,0.07-17.1-0.02
				c-4.89-0.05-9.33-4.07-9.94-8.91c-0.6-4.86-0.92-9.74-1.45-14.61c-1.89-0.98-3.73-2.04-5.7-2.83c-2.67-0.16-5.34,0.26-7.93,0.88
				C261.05,323.48,271.08,303.96,287.05,292.13z M281.94,337.65c9.99-1.23,20.18-1.36,30.12,0.32c2.29,0.22,3.96,1.89,5.31,3.6
				c1.59-0.03,3.19-0.05,4.78-0.09c2.75-4.39,8.37-3.82,12.83-4.46c8.3-0.5,16.77-0.53,24.92,1.24c1.71,1.03,3.58,1.27,5.2-0.17
				c-11.87-9.38-21.78-21.15-29.39-34.19C321.41,319.97,301.95,330.41,281.94,337.65z M287.11,340.21
				c-3.23,0.66-8.18-0.25-9.39,3.74c0.04,5.03,0.84,10.04,1.28,15.06c0.2,3.55,3.38,6.69,6.96,6.74c5.69,0.04,11.38,0.01,17.08,0.01
				c4.05,0.12,7.89-2.48,9.66-6.07c1.7-3.96,1.32-8.45,2.03-12.64c0.6-2.32-0.05-5.49-2.8-5.95
				C303.76,339.64,295.37,339.43,287.11,340.21z M329.51,340.73c-2.09,0.1-4.55,0.95-4.97,3.3c0.01,3.97,0.77,7.89,1.1,11.84
				c0.39,5.2,4.97,9.78,10.24,9.88c5.71,0.03,11.42,0.02,17.13,0.01c3.75,0.18,7.17-3.07,7.43-6.77c0.42-4.67,0.99-9.32,1.3-13.99
				c0.23-2.14-1.68-3.96-3.73-4.05C348.59,339.43,338.95,339.39,329.51,340.73z"/>
		</g>
		<path class="st25" d="M260.68,358.24c1.88,1.59,4.17,2.54,6.55,3.14c2,9.74,5.63,19.14,10.83,27.62
			c7.06,11.5,17.13,21.98,30.22,26.31c0.11,2.68,0.13,5.37,0.09,8.06c-3.85-0.01-7.69,0.05-11.53-0.04
			c-6.62-0.14-13.25-0.08-19.87-0.07c-4.95,0-9.76,1.71-14.01,4.15c-4.26-11.25-5.48-23.48-4.35-35.42
			C259.29,380.74,260.16,369.5,260.68,358.24z"/>
		<path class="st25" d="M370.69,361.52c2.37-0.76,4.73-1.67,6.66-3.28c0.63,13.27,1.69,26.52,2.41,39.79
			c0.43,10.05-1.27,20.16-4.76,29.59c-6.45,17.39-18.91,32.11-33.92,42.8c-3.86,2.63-7.74,5.29-11.98,7.29
			c0.07-14.71-0.02-29.42,0.04-44.13c0.97-6.06,0.16-12.2,0.62-18.28c7.81-2.53,14.65-7.44,20.3-13.32
			C360.59,390.83,367.76,376.56,370.69,361.52z"/>
	</g>
	<g>
		<path class="st26" d="M666.25,288.97c1.29-0.05,2.58-0.09,3.88-0.13c0.01,3.82-0.04,7.64,0.01,11.46
			c-1.29,0.07-2.57,0.14-3.84,0.13C666.18,296.61,666.25,292.79,666.25,288.97z"/>
	</g>
	<g>
		<path class="st27" d="M281.94,337.65c20.01-7.24,39.47-17.68,53.77-33.75c7.61,13.04,17.52,24.81,29.39,34.19
			c-1.62,1.44-3.49,1.2-5.2,0.17c-8.15-1.77-16.62-1.74-24.92-1.24c-4.46,0.64-10.08,0.07-12.83,4.46
			c-1.59,0.04-3.19,0.06-4.78,0.09c-1.35-1.71-3.02-3.38-5.31-3.6C302.12,336.29,291.93,336.42,281.94,337.65z"/>
		<g>
			<path class="st27" d="M260.93,343.38c2.59-0.62,5.26-1.04,7.93-0.88c1.97,0.79,3.81,1.85,5.7,2.83
				c0.53,4.87,0.85,9.75,1.45,14.61c0.61,4.84,5.05,8.86,9.94,8.91c5.7,0.09,11.4,0.04,17.1,0.02c5.58,0.06,10.9-3.67,12.88-8.87
				c1.48-4.44,1.18-9.22,2.09-13.78c1.15,0.03,2.32,0.05,3.49,0.09c0.94,5.34,0.21,11.27,3.17,16.07c2.58,4.13,7.42,6.68,12.29,6.51
				c5.37-0.01,10.75,0.04,16.13-0.02c5.03,0.09,9.72-4,10.31-9c0.62-4.87,0.85-9.78,1.52-14.64c3.64-2.48,8.01-3.49,12.25-1.83
				c5.24,3.37,4.26,10.94,0.17,14.84c-1.93,1.61-4.29,2.52-6.66,3.28c-2.93,15.04-10.1,29.31-20.63,40.46
				c-5.65,5.88-12.49,10.79-20.3,13.32c-0.46,6.08,0.35,12.22-0.62,18.28c-1.58,1.92-3.19,3.96-5.46,5.11
				c-4.43,2.07-10.24,0.84-13.14-3.19c-2.88-3.37-2.06-8.06-2.17-12.13c0.04-2.69,0.02-5.38-0.09-8.06
				c-13.09-4.33-23.16-14.81-30.22-26.31c-5.2-8.48-8.83-17.88-10.83-27.62c-2.38-0.6-4.67-1.55-6.55-3.14
				C256.52,354.34,255.67,346.74,260.93,343.38z M319.11,368.2c0.29,1.92,0.66,3.83,1.12,5.73c-1.12,1.46-2.79,2.93-2.08,4.97
				c2.45-0.94,5.41-2.84,4.68-5.93C322.49,370.88,322.17,367.16,319.11,368.2z M310.96,394.03c4.77,2.32,10.58,1.95,15.57,0.47
				c0.13-0.4,0.39-1.19,0.53-1.59c-1.71-0.69-3.49,0.34-5.21,0.44c-3.35,0.54-6.72-0.09-9.98-0.83
				C311.64,392.9,311.19,393.65,310.96,394.03z"/>
		</g>
		<path class="st27" d="M306.71,538.18c6.3,1.53,13.38,2.51,17.64,8c-6.15,1.24-6.31,9.84-1.97,13.26c-5.25,0-10.53-0.35-15.76,0.22
			C306.32,552.5,306.68,545.34,306.71,538.18z"/>
	</g>
	<g>
		<path class="st28" d="M300.24,351.14c4.86-2.06,5.69,8.26,0.79,7.89C297.96,357.93,297.87,353.01,300.24,351.14z"/>
	</g>
	<g>
		<path class="st29" d="M344.21,351.22c5-2.4,5.88,8.35,0.78,7.82C342.08,357.79,342.03,353.18,344.21,351.22z"/>
	</g>
	<g>
		<path class="st30" d="M475.82,353.12c19.08-0.56,38.22-0.11,57.32-0.22c2.4-0.64,2.21,3.52-0.13,2.86
			c-18.95-0.02-37.91,0.09-56.86-0.06C476.07,355.06,475.9,353.77,475.82,353.12z"/>
	</g>
	<g>
		<path class="st31" d="M483.79,362.9c14.07-0.3,28.17-0.13,42.25-0.08c1.86-0.24,1.48,2.95-0.09,2.86
			c-13.35,0.18-26.7,0.04-40.05,0.07C484.17,366.2,482.4,364.58,483.79,362.9z"/>
	</g>
	<g>
		<path class="st32" d="M319.11,368.2c3.06-1.04,3.38,2.68,3.72,4.77c0.73,3.09-2.23,4.99-4.68,5.93c-0.71-2.04,0.96-3.51,2.08-4.97
			C319.77,372.03,319.4,370.12,319.11,368.2z"/>
	</g>
	<g>
		<path class="st33" d="M563.99,374.1c12.35-0.13,24.72-0.21,37.07,0.04c0.97,1.55-0.31,3.36-2.07,2.75
			c-11.04,0-22.07,0.03-33.1-0.02C564.09,377.47,563.13,375.55,563.99,374.1z"/>
		<path class="st33" d="M563.96,382.11c15.68-0.23,31.38-0.05,47.06-0.09c2.44-0.69,2.52,3.63,0.03,2.95
			c-15.7-0.04-31.43,0.28-47.12-0.17C563.94,384.13,563.95,382.78,563.96,382.11z"/>
	</g>
	<g>
		<path class="st34" d="M666.22,374.07c1.29-0.01,2.59-0.03,3.9-0.04c0.02,2.54,0.06,5.08-0.14,7.63c-2.54-0.03-5.08-0.04-7.6-0.05
			c0-1.33,0.01-2.66,0.03-3.98c1.28-0.02,2.57-0.03,3.86-0.03C666.26,376.72,666.23,374.96,666.22,374.07z"/>
	</g>
	<g>
		<path class="st35" d="M310.96,394.03c0.23-0.38,0.68-1.13,0.91-1.51c3.26,0.74,6.63,1.37,9.98,0.83c1.72-0.1,3.5-1.13,5.21-0.44
			c-0.14,0.4-0.4,1.19-0.53,1.59C321.54,395.98,315.73,396.35,310.96,394.03z"/>
	</g>
	<g>
		<path class="st36" d="M480.32,400.93c42.66-0.1,85.33-0.1,127.99,0c0.81,1.84-0.4,3.27-2.34,2.84
			c-41.34-0.02-82.68-0.01-124.03-0.01C481.39,402.81,480.85,401.87,480.32,400.93z"/>
	</g>
	<g>
		<path class="st37" d="M478.93,414.02c1.75-1.2,3.55-2.4,5.65-2.91c40.8,0.38,81.63-0.02,122.44,0.2c2.13-0.7,1.99,3.55,0.04,2.79
			C564.35,414.11,521.64,414.26,478.93,414.02z"/>
	</g>
	<g>
		<path class="st38" d="M86.34,417.35c1.91-2.02,5.88-0.09,4.87,2.72c-0.35,2.06-3.15,2.71-4.63,1.43
			C85.55,420.36,85.32,418.57,86.34,417.35z"/>
	</g>
	<g>
		<g>
			<path class="st39" d="M262.96,427.41c4.25-2.44,9.06-4.15,14.01-4.15c6.62-0.01,13.25-0.07,19.87,0.07
				c0.09,36.51-0.04,73.02,0.07,109.53c3.28-0.01,6.56-0.01,9.85,0.14c-0.01,1.72-0.02,3.44-0.05,5.18
				c-0.03,7.16-0.39,14.32-0.09,21.48c-3.5,0.58-7.06,0.31-10.59,0.35c-29.33,0.01-58.66-0.02-87.99,0.01
				c-2.21-0.01-4.39-0.34-6.58-0.57c-1.75-1.65-3.94-3.13-4.62-5.57c-1.26-3.27,0.33-6.61,1.28-9.73
				c9.34-28.5,21.21-56.32,37.23-81.74C243.37,449.9,252.2,437.72,262.96,427.41z M246.1,529.08c-0.6,3.38,3.3,4.2,5.83,3.9
				c0.08-4.75,0.16-9.52-0.04-14.26C249.6,521.94,247.69,525.47,246.1,529.08z"/>
		</g>
		<path class="st39" d="M375,427.62c2.87,1.92,5.31,4.43,7.04,7.43c3.37,5.75,7.1,11.28,10.66,16.91c-1.51,2.83-2.33,5.94-2.77,9.1
			c-4.65,26.02-9.52,52.01-14.21,78.03c-0.83,2.65,0.68,5.02,2.26,7.01l-0.91,0.04c-11.98,0.32-23.96,0.08-35.95,0.14
			c0-25.29,0.08-50.57-0.04-75.86C356.09,459.73,368.55,445.01,375,427.62z"/>
	</g>
	<g>
		<path class="st40" d="M296.84,423.33c3.84,0.09,7.68,0.03,11.53,0.04c0.11,4.07-0.71,8.76,2.17,12.13
			c2.9,4.03,8.71,5.26,13.14,3.19c2.27-1.15,3.88-3.19,5.46-5.11c-0.06,14.71,0.03,29.42-0.04,44.13c4.24-2,8.12-4.66,11.98-7.29
			c0.12,25.29,0.04,50.57,0.04,75.86c-5.59-0.04-11.18,0.05-16.77-0.1c-4.26-5.49-11.34-6.47-17.64-8c0.03-1.74,0.04-3.46,0.05-5.18
			c-3.29-0.15-6.57-0.15-9.85-0.14C296.8,496.35,296.93,459.84,296.84,423.33z"/>
	</g>
	<g>
		<path class="st41" d="M158.02,447.52c1.39,0.07,2.78,0.09,4.17,0.08c0.17,19.88,0.21,39.77-0.02,59.66c-1.4-0.01-2.8-0.01-4.2,0
			C158.04,487.34,157.96,467.43,158.02,447.52z"/>
	</g>
	<g>
		<g>
			<path class="st42" d="M392.7,451.96c1.95-1.05,3.95-2.29,6.27-2.2c14.64-0.07,29.28,0.01,43.91-0.03
				c6.06,0.03,12.13,0.02,18.19,0c21.65,0.03,43.31-0.01,64.96,0.01c2.91-0.07,6.03,1.05,7.59,3.65c1.82,2.53,1.23,5.78,0.75,8.64
				c-4.34,23.22-8.49,46.48-12.78,69.72c-0.97,4.95-1.3,10.18-3.83,14.67c-3.24-0.47-6.52-0.58-9.78-0.54
				c-43.33,0.2-86.67-0.2-130,0.22c-1.58-1.99-3.09-4.36-2.26-7.01c4.69-26.02,9.56-52.01,14.21-78.03
				C390.37,457.9,391.19,454.79,392.7,451.96z M452.32,488.48c-7.04,1.77-9.66,11.61-4.46,16.66c4.92,5.72,15.41,3.16,17.1-4.21
				C467.38,493.62,459.57,486,452.32,488.48z"/>
		</g>
	</g>
	<g>
		<path class="st43" d="M560.49,458.24c1.08,1.36,2.18,2.7,3.25,4.08c-0.66,1.85-0.22,3.7,0.58,5.42
			c6.15,15.54,7.37,32.86,3.61,49.14c-1.56-0.01-3.11-0.01-4.66,0c1.47-10.45-5.41-19.54-12.78-26.1
			C555.22,480.52,561.08,469.87,560.49,458.24z"/>
		<path class="st43" d="M592.22,485.82c5.14-4.06,10.46-8.03,14.54-13.23c0.23,4.85-1.74,9.35-3.24,13.84
			c-2.38,6.87-5.57,13.47-9.72,19.44c-2.53,3.81-5.67,7.17-8.16,11.01c-0.7,0.01-2.1,0.01-2.81,0.02c2.53-2.94,5.05-5.97,6.65-9.53
			C592.65,500.69,592.86,493.06,592.22,485.82z"/>
	</g>
	<g>
		<path class="st44" d="M564.32,467.74c-0.8-1.72-1.24-3.57-0.58-5.42c5.28,6.84,9.95,14.28,12.84,22.45
			c4.05,10.37,3.91,22.83-2.75,32.12c-1.97,0-3.94-0.01-5.9-0.01C571.69,500.6,570.47,483.28,564.32,467.74z"/>
		<path class="st44" d="M607.56,470.57c2.19,15.98-0.11,34.26-11.81,46.31c-3.37,0-6.74,0.01-10.11,0c2.49-3.84,5.63-7.2,8.16-11.01
			c4.15-5.97,7.34-12.57,9.72-19.44c1.5-4.49,3.47-8.99,3.24-13.84C606.96,472.09,607.36,471.08,607.56,470.57z"/>
	</g>
	<g>
		<path class="st45" d="M587.83,468.09c0.24,0.77,0.48,1.54,0.73,2.32c-0.37,2.2-0.67,4.41-0.64,6.64
			c0.02,14.12-4.6,28.01-12.22,39.82c-0.47,0-1.4,0.02-1.87,0.02c6.66-9.29,6.8-21.75,2.75-32.12
			C581.19,479.9,585.67,474.54,587.83,468.09z"/>
		<path class="st45" d="M538.33,474.43c3.09,6.09,7.44,11.45,12.16,16.35c7.37,6.56,14.25,15.65,12.78,26.1
			c-5.39,0.01-10.77,0.01-16.15,0C540.37,503.97,535.94,489.04,538.33,474.43z"/>
	</g>
	<g>
		<path class="st46" d="M587.92,477.05c-0.03-2.23,0.27-4.44,0.64-6.64c1.76,4.99,2.96,10.17,3.66,15.41
			c0.64,7.24,0.43,14.87-2.74,21.55c-1.6,3.56-4.12,6.59-6.65,9.53c-2.38,0-4.76-0.04-7.13-0.03
			C583.32,505.06,587.94,491.17,587.92,477.05z"/>
		<path class="st46" d="M537.57,472.89c0.19,0.38,0.57,1.15,0.76,1.54c-2.39,14.61,2.04,29.54,8.79,42.45
			c-2.71,0-5.41,0.01-8.11,0.01C529.89,503.96,532.56,486.87,537.57,472.89z"/>
	</g>
	<g>
		<path class="st47" d="M77.86,490.9c20.38-0.6,40.83-0.15,61.23-0.22c2.41-0.46,2.32,3.86-0.04,3.41
			c-19.69,0.11-39.39,0.05-59.08,0.03C77.95,494.56,77.39,492.43,77.86,490.9z"/>
		<path class="st47" d="M75.68,510.9c22.14-0.32,44.29-0.08,66.44-0.12c-0.57,1.1-1.1,2.22-1.57,3.38
			c-21.59-0.09-43.19,0.11-64.79-0.1C75.74,513.27,75.7,511.69,75.68,510.9z"/>
	</g>
	<g>
		<path class="st48" d="M77.09,499.88c1.29-0.29,2.6-0.42,3.93-0.39c19.69,0.09,39.39-0.08,59.07,0.09c2.21-0.28,2.12,3.7-0.01,3.37
			c-19.7,0.15-39.41-0.01-59.11,0.08c-1.27,0-2.53-0.09-3.79-0.26C77.16,502.04,77.11,500.6,77.09,499.88z"/>
	</g>
	<g>
		<path class="st49" d="M534.87,516.88c1.37,0,2.75,0,4.14,0.01c2.7,0,5.4-0.01,8.11-0.01c5.38,0.01,10.76,0.01,16.15,0
			c1.55-0.01,3.1-0.01,4.66,0c1.96,0,3.93,0.01,5.9,0.01c0.47,0,1.4-0.02,1.87-0.02c2.37-0.01,4.75,0.03,7.13,0.03
			c0.71-0.01,2.11-0.01,2.81-0.02c3.37,0.01,6.74,0,10.11,0c0.81-0.01,2.42-0.01,3.22-0.01c0.02,2.41,0.03,4.82,0.02,7.24
			c-1.78,0.01-3.55,0.04-5.32,0.04c-17.78-0.08-35.56-0.06-53.33,0c-1.83-0.01-3.65-0.03-5.46-0.04
			C534.86,521.69,534.85,519.28,534.87,516.88z"/>
		<path class="st49" d="M540.94,528.18c14.29,0.23,28.58-0.06,42.86,0.14c-1.08,10.25-3.18,20.36-4.53,30.58
			c2.8,0.77,5.74,0.71,8.58,0.11c0.29-1.02,0.58-2.03,0.86-3.05c-0.1,0.86-0.29,2.58-0.39,3.44c8.13,0.12,16.29-0.35,24.4,0.26
			c4.63,1.04,8.25,5.54,8.03,10.33c0,4.01,0.03,8.04-0.01,12.06c0,4.81-3.95,9.26-8.71,9.88c-2.61,0.18-5.23,0.05-7.83,0.09
			c-156.88-0.01-313.76-0.01-470.64-0.01c-4.21-0.18-9.03,0.88-12.54-2.09c-3.08-2.25-4.38-6.22-4.04-9.92
			c0.21-4.33-0.4-8.72,0.38-13c0.97-3.63,4.07-6.5,7.71-7.35c8.02-0.55,16.07-0.2,24.1-0.2c9.61-0.13,19.27,0.45,28.85-0.31
			c7.78,0.61,15.63-0.02,23.44,0.31c2.19,0.23,4.37,0.56,6.58,0.57c29.33-0.03,58.66,0,87.99-0.01c3.53-0.04,7.09,0.23,10.59-0.35
			c5.23-0.57,10.51-0.22,15.76-0.22c17.84,0.46,35.7-0.04,53.54,0.27c31.02-0.04,62.05-0.01,93.07-0.02
			c16.62-0.13,33.25,0.27,49.86-0.21c8.99-0.22,17.98-0.04,26.97-0.1C544.22,548.98,542.65,538.57,540.94,528.18z"/>
	</g>
	<g>
		<path class="st50" d="M540.34,524.15c17.77-0.06,35.55-0.08,53.33,0c-1.62,10.61-3.28,21.21-4.96,31.81
			c-0.28,1.02-0.57,2.03-0.86,3.05c-2.84,0.6-5.78,0.66-8.58-0.11c1.35-10.22,3.45-20.33,4.53-30.58
			c-14.28-0.2-28.57,0.09-42.86-0.14C540.73,526.83,540.52,525.49,540.34,524.15z"/>
		<path class="st50" d="M133.59,605.06c95.48-0.34,190.95-0.05,286.42-0.16c54,0.12,108.01-0.19,162,0.16
			c0.39,14.07,0.08,28.16,0.1,42.24c-149.49-0.1-298.98-0.01-448.48-0.04C133.59,633.19,133.68,619.12,133.59,605.06z"/>
	</g>
	<g>
		<path class="st51" d="M185.55,539.73c-0.28-5.14-0.34-10.31,0.04-15.43c3.36,1.03,6.24,4.05,6.14,7.73
			C191.81,535.7,188.93,538.71,185.55,539.73z"/>
	</g>
	<g>
		<path class="st52" d="M322.38,559.44c-4.34-3.42-4.18-12.02,1.97-13.26c5.59,0.15,11.18,0.06,16.77,0.1
			c11.99-0.06,23.97,0.18,35.95-0.14c1.8,1.9,3.94,4.02,3.62,6.9c0.26,3.11-1.99,5.63-4.77,6.67
			C358.08,559.4,340.22,559.9,322.38,559.44z"/>
	</g>
	<g>
		<path class="st53" d="M377.07,546.14l0.91-0.04c43.33-0.42,86.67-0.02,130-0.22c3.26-0.04,6.54,0.07,9.78,0.54
			c5.46,2.01,4.95,9.71,1.09,13.06c-16.61,0.48-33.24,0.08-49.86,0.21c-31.02,0.01-62.05-0.02-93.07,0.02
			c2.78-1.04,5.03-3.56,4.77-6.67C381.01,550.16,378.87,548.04,377.07,546.14z"/>
	</g>
	<g>
		<path class="st54" d="M133.56,592.01c156.88,0,313.76,0,470.64,0.01c0.02,18.44,0.02,36.89,0,55.34
			c-7.37-0.01-14.73,0.09-22.09-0.06c-0.02-14.08,0.29-28.17-0.1-42.24c-53.99-0.35-108-0.04-162-0.16
			c-95.47,0.11-190.94-0.18-286.42,0.16C133.49,600.71,133.55,596.36,133.56,592.01z"/>
	</g>
</g>
</svg>
